<svg width="134" height="45" viewBox="0 0 134 45" fill="none" xmlns="http://www.w3.org/2000/svg">
<g filter="url(#filter0_di_1157_4176)">
<rect x="4" width="126" height="37" rx="15" fill="white"/>
<path d="M61.4675 25.304C60.4328 25.304 59.5581 25.1387 58.8435 24.808C58.1395 24.4773 57.6008 24.024 57.2275 23.448C56.8541 22.8613 56.6675 22.2 56.6675 21.464H58.8915C58.8915 21.7733 58.9768 22.0773 59.1475 22.376C59.3181 22.664 59.5901 22.8987 59.9635 23.08C60.3475 23.2613 60.8488 23.352 61.4675 23.352C62.0221 23.352 62.4861 23.272 62.8595 23.112C63.2328 22.952 63.5101 22.744 63.6915 22.488C63.8728 22.2213 63.9635 21.9227 63.9635 21.592C63.9635 21.176 63.7875 20.8453 63.4355 20.6C63.0835 20.344 62.5395 20.184 61.8035 20.12L60.7795 20.04C59.6595 19.944 58.7635 19.5973 58.0915 19C57.4301 18.392 57.0995 17.592 57.0995 16.6C57.0995 15.8533 57.2755 15.2133 57.6275 14.68C57.9795 14.136 58.4701 13.72 59.0995 13.432C59.7395 13.1333 60.4861 12.984 61.3395 12.984C62.2248 12.984 62.9875 13.1387 63.6275 13.448C64.2675 13.7573 64.7635 14.1947 65.1155 14.76C65.4675 15.3147 65.6435 15.9707 65.6435 16.728H63.4195C63.4195 16.408 63.3395 16.1147 63.1795 15.848C63.0301 15.5707 62.8008 15.352 62.4915 15.192C62.1928 15.0213 61.8088 14.936 61.3395 14.936C60.8915 14.936 60.5181 15.0107 60.2195 15.16C59.9208 15.3093 59.6968 15.512 59.5475 15.768C59.3981 16.024 59.3235 16.3013 59.3235 16.6C59.3235 16.9627 59.4568 17.2827 59.7235 17.56C59.9901 17.8267 60.4115 17.9813 60.9875 18.024L62.0115 18.12C62.8435 18.184 63.5741 18.36 64.2035 18.648C64.8328 18.936 65.3181 19.3253 65.6595 19.816C66.0115 20.3067 66.1875 20.8987 66.1875 21.592C66.1875 22.328 65.9955 22.9787 65.6115 23.544C65.2275 24.0987 64.6781 24.5307 63.9635 24.84C63.2595 25.1493 62.4275 25.304 61.4675 25.304ZM71.0487 25.272C70.046 25.272 69.2674 24.9413 68.7127 24.28C68.1687 23.6187 67.8967 22.6373 67.8967 21.336V16.296H70.1207V21.528C70.1207 22.0613 70.27 22.488 70.5687 22.808C70.8674 23.1173 71.2727 23.272 71.7847 23.272C72.2967 23.272 72.7127 23.1067 73.0327 22.776C73.3634 22.4453 73.5287 21.9973 73.5287 21.432V16.296H75.7527V25H73.9927V21.304H74.1687C74.1687 22.1787 74.0567 22.9093 73.8327 23.496C73.6087 24.0827 73.2727 24.5253 72.8247 24.824C72.3767 25.1227 71.8167 25.272 71.1447 25.272H71.0487ZM83.4115 25.288C82.6968 25.288 82.0675 25.1387 81.5235 24.84C80.9795 24.5307 80.5528 24.0827 80.2435 23.496C79.9341 22.9093 79.7635 22.2 79.7315 21.368H80.0675V25H78.3075V13.32H80.5315V19.16L79.9395 20.072C79.9821 19.176 80.1581 18.4293 80.4675 17.832C80.7875 17.2347 81.2141 16.7867 81.7475 16.488C82.2808 16.1893 82.8835 16.04 83.5555 16.04C84.1528 16.04 84.6968 16.152 85.1875 16.376C85.6781 16.6 86.0995 16.9147 86.4515 17.32C86.8035 17.7147 87.0701 18.1787 87.2515 18.712C87.4435 19.2453 87.5395 19.8267 87.5395 20.456V20.792C87.5395 21.4213 87.4435 22.008 87.2515 22.552C87.0595 23.096 86.7821 23.576 86.4195 23.992C86.0568 24.3973 85.6195 24.7173 85.1075 24.952C84.6061 25.176 84.0408 25.288 83.4115 25.288ZM82.9155 23.416C83.3955 23.416 83.8115 23.2987 84.1635 23.064C84.5261 22.8187 84.8088 22.488 85.0115 22.072C85.2141 21.656 85.3155 21.176 85.3155 20.632C85.3155 20.0773 85.2141 19.5973 85.0115 19.192C84.8088 18.7867 84.5261 18.472 84.1635 18.248C83.8115 18.024 83.3955 17.912 82.9155 17.912C82.4781 17.912 82.0728 18.008 81.6995 18.2C81.3368 18.392 81.0381 18.6747 80.8035 19.048C80.5795 19.4213 80.4675 19.8693 80.4675 20.392V21.032C80.4675 21.5333 80.5848 21.96 80.8195 22.312C81.0541 22.664 81.3581 22.936 81.7315 23.128C82.1048 23.32 82.4995 23.416 82.9155 23.416ZM89.495 25V16.312H91.255V20.04H91.095C91.095 19.1653 91.207 18.4347 91.431 17.848C91.655 17.2507 91.9856 16.8027 92.423 16.504C92.871 16.1947 93.4256 16.04 94.087 16.04H94.183C94.855 16.04 95.4096 16.1947 95.847 16.504C96.295 16.8027 96.6256 17.2507 96.839 17.848C97.063 18.4347 97.175 19.1653 97.175 20.04H96.615C96.615 19.1653 96.727 18.4347 96.951 17.848C97.1856 17.2507 97.5216 16.8027 97.959 16.504C98.407 16.1947 98.9616 16.04 99.623 16.04H99.719C100.391 16.04 100.951 16.1947 101.399 16.504C101.847 16.8027 102.183 17.2507 102.407 17.848C102.642 18.4347 102.759 19.1653 102.759 20.04V25H100.535V19.832C100.535 19.288 100.396 18.856 100.119 18.536C99.8416 18.2053 99.447 18.04 98.935 18.04C98.423 18.04 98.0123 18.2107 97.703 18.552C97.3936 18.8827 97.239 19.3307 97.239 19.896V25H95.015V19.832C95.015 19.288 94.8763 18.856 94.599 18.536C94.3216 18.2053 93.927 18.04 93.415 18.04C92.903 18.04 92.4923 18.2107 92.183 18.552C91.8736 18.8827 91.719 19.3307 91.719 19.896V25H89.495ZM105.552 25V16.312H107.776V25H105.552ZM104.336 17.976V16.312H107.776V17.976H104.336ZM106.368 15.272C105.93 15.272 105.605 15.16 105.392 14.936C105.189 14.7013 105.088 14.4133 105.088 14.072C105.088 13.7093 105.189 13.416 105.392 13.192C105.605 12.968 105.93 12.856 106.368 12.856C106.805 12.856 107.125 12.968 107.328 13.192C107.53 13.416 107.632 13.7093 107.632 14.072C107.632 14.4133 107.53 14.7013 107.328 14.936C107.125 15.16 106.805 15.272 106.368 15.272ZM114.115 25.112C113.315 25.112 112.653 25.0107 112.131 24.808C111.619 24.5947 111.235 24.2427 110.979 23.752C110.723 23.2507 110.595 22.5787 110.595 21.736L110.611 13.864H112.691L112.675 21.88C112.675 22.3067 112.787 22.6373 113.011 22.872C113.245 23.096 113.576 23.208 114.003 23.208H115.363V25.112H114.115ZM109.219 17.944V16.312H115.363V17.944H109.219Z" fill="#144795"/>
<path d="M30.4899 15.0171H29.4509C27.1847 15.0171 25.3472 17.0405 25.3472 19.5361V25.5144C25.3472 28.0088 27.1847 30.0322 29.4509 30.0322H41.8457C44.1119 30.0322 45.9494 28.0088 45.9494 25.5144V19.5238C45.9494 17.0356 44.1175 15.0171 41.8579 15.0171H40.8078" stroke="#144795" stroke-width="3" stroke-linecap="round" stroke-linejoin="round"/>
<path d="M35.6481 6.68596V21.4521" stroke="#144795" stroke-width="3" stroke-linecap="round" stroke-linejoin="round"/>
<path d="M32.4019 10.2773L35.6481 6.68666L38.8955 10.2773" stroke="#144795" stroke-width="3" stroke-linecap="round" stroke-linejoin="round"/>
</g>
<defs>
<filter id="filter0_di_1157_4176" x="0" y="0" width="134" height="45" filterUnits="userSpaceOnUse" color-interpolation-filters="sRGB">
<feFlood flood-opacity="0" result="BackgroundImageFix"/>
<feColorMatrix in="SourceAlpha" type="matrix" values="0 0 0 0 0 0 0 0 0 0 0 0 0 0 0 0 0 0 127 0" result="hardAlpha"/>
<feOffset dy="4"/>
<feGaussianBlur stdDeviation="2"/>
<feComposite in2="hardAlpha" operator="out"/>
<feColorMatrix type="matrix" values="0 0 0 0 0 0 0 0 0 0 0 0 0 0 0 0 0 0 0.25 0"/>
<feBlend mode="normal" in2="BackgroundImageFix" result="effect1_dropShadow_1157_4176"/>
<feBlend mode="normal" in="SourceGraphic" in2="effect1_dropShadow_1157_4176" result="shape"/>
<feColorMatrix in="SourceAlpha" type="matrix" values="0 0 0 0 0 0 0 0 0 0 0 0 0 0 0 0 0 0 127 0" result="hardAlpha"/>
<feOffset dy="4"/>
<feGaussianBlur stdDeviation="2"/>
<feComposite in2="hardAlpha" operator="arithmetic" k2="-1" k3="1"/>
<feColorMatrix type="matrix" values="0 0 0 0 0 0 0 0 0 0 0 0 0 0 0 0 0 0 0.25 0"/>
<feBlend mode="normal" in2="shape" result="effect2_innerShadow_1157_4176"/>
</filter>
</defs>
</svg>
