<svg width="154" height="30" viewBox="0 0 154 30" fill="none" xmlns="http://www.w3.org/2000/svg">
<rect width="154" height="30" rx="15" fill="white"/>
<mask id="path-2-outside-1_1214_4525" maskUnits="userSpaceOnUse" x="5" y="8" width="143" height="15" fill="black">
<rect fill="white" x="5" y="8" width="143" height="15"/>
<path d="M8.20577 19.065V17.583H10.5848C11.0181 17.583 11.3474 17.466 11.5728 17.232C11.7981 16.9893 11.9108 16.66 11.9108 16.244C11.9108 15.828 11.7981 15.5073 11.5728 15.282C11.3474 15.048 11.0181 14.931 10.5848 14.931H8.20577V13.8H10.4548C11.0874 13.8 11.6508 13.878 12.1448 14.034C12.6474 14.1813 13.0374 14.4327 13.3148 14.788C13.6008 15.1433 13.7438 15.62 13.7438 16.218V16.4C13.7438 16.9633 13.6181 17.4443 13.3668 17.843C13.1241 18.233 12.7558 18.5363 12.2618 18.753C11.7764 18.961 11.1741 19.065 10.4548 19.065H8.20577ZM6.65877 19.065V9.445H8.46577V19.065H6.65877ZM8.20577 14.632V13.501H10.2338C10.6758 13.501 11.0008 13.384 11.2088 13.15C11.4168 12.916 11.5208 12.604 11.5208 12.214C11.5208 11.824 11.4168 11.512 11.2088 11.278C11.0008 11.044 10.6758 10.927 10.2338 10.927H8.20577V9.445H10.0648C11.1394 9.445 11.9541 9.67033 12.5088 10.121C13.0721 10.5717 13.3538 11.2173 13.3538 12.058V12.24C13.3538 12.8293 13.2108 13.3017 12.9248 13.657C12.6474 14.0037 12.2618 14.255 11.7678 14.411C11.2738 14.5583 10.7061 14.632 10.0648 14.632H8.20577ZM17.871 19.221C17.0563 19.221 16.4236 18.9523 15.973 18.415C15.531 17.8777 15.31 17.0803 15.31 16.023V11.928H17.117V16.179C17.117 16.6123 17.2383 16.959 17.481 17.219C17.7236 17.4703 18.053 17.596 18.469 17.596C18.885 17.596 19.223 17.4617 19.483 17.193C19.7516 16.9243 19.886 16.5603 19.886 16.101V11.928H21.693V19H20.263V15.997H20.406C20.406 16.7077 20.315 17.3013 20.133 17.778C19.951 18.2547 19.678 18.6143 19.314 18.857C18.95 19.0997 18.495 19.221 17.949 19.221H17.871ZM28.0457 19V16.907H27.7467V14.58C27.7467 14.1727 27.647 13.8693 27.4477 13.67C27.2484 13.4707 26.9407 13.371 26.5247 13.371C26.308 13.371 26.048 13.3753 25.7447 13.384C25.4414 13.3927 25.1337 13.4057 24.8217 13.423C24.5184 13.4317 24.2454 13.4447 24.0027 13.462V11.928C24.202 11.9107 24.4274 11.8933 24.6787 11.876C24.93 11.8587 25.1857 11.85 25.4457 11.85C25.7144 11.8413 25.9657 11.837 26.1997 11.837C26.9277 11.837 27.53 11.9323 28.0067 12.123C28.492 12.3137 28.856 12.6127 29.0987 13.02C29.35 13.4273 29.4757 13.9603 29.4757 14.619V19H28.0457ZM25.7707 19.182C25.2594 19.182 24.8087 19.091 24.4187 18.909C24.0374 18.727 23.7384 18.467 23.5217 18.129C23.3137 17.791 23.2097 17.3837 23.2097 16.907C23.2097 16.387 23.3354 15.9623 23.5867 15.633C23.8467 15.3037 24.2064 15.0567 24.6657 14.892C25.1337 14.7273 25.6797 14.645 26.3037 14.645H27.9417V15.724H26.2777C25.8617 15.724 25.541 15.828 25.3157 16.036C25.099 16.2353 24.9907 16.4953 24.9907 16.816C24.9907 17.1367 25.099 17.3967 25.3157 17.596C25.541 17.7953 25.8617 17.895 26.2777 17.895C26.529 17.895 26.7587 17.8517 26.9667 17.765C27.1834 17.6697 27.361 17.5137 27.4997 17.297C27.647 17.0717 27.7294 16.7683 27.7467 16.387L28.1887 16.894C28.1454 17.388 28.024 17.804 27.8247 18.142C27.634 18.48 27.3654 18.74 27.0187 18.922C26.6807 19.0953 26.2647 19.182 25.7707 19.182ZM34.4793 19.091C33.8293 19.091 33.2919 19.0087 32.8673 18.844C32.4513 18.6707 32.1393 18.3847 31.9313 17.986C31.7233 17.5787 31.6193 17.0327 31.6193 16.348L31.6323 9.952H33.3223L33.3093 16.465C33.3093 16.8117 33.4003 17.0803 33.5823 17.271C33.7729 17.453 34.0416 17.544 34.3883 17.544H35.4933V19.091H34.4793ZM30.5013 13.267V11.941H35.4933V13.267H30.5013ZM41.5446 19.052V17.336H43.5076C44.0016 17.336 44.4392 17.2623 44.8206 17.115C45.2106 16.959 45.5399 16.7423 45.8086 16.465C46.0772 16.1877 46.2809 15.8627 46.4196 15.49C46.5669 15.1087 46.6406 14.6883 46.6406 14.229C46.6406 13.7523 46.5669 13.3277 46.4196 12.955C46.2809 12.5737 46.0772 12.2487 45.8086 11.98C45.5399 11.7113 45.2106 11.5077 44.8206 11.369C44.4392 11.2303 44.0016 11.161 43.5076 11.161H41.5446V9.445H43.3906C44.2486 9.445 44.9982 9.57067 45.6396 9.822C46.2809 10.0733 46.8139 10.42 47.2386 10.862C47.6632 11.2953 47.9796 11.7937 48.1876 12.357C48.4042 12.9117 48.5126 13.488 48.5126 14.086V14.372C48.5126 14.944 48.4042 15.5073 48.1876 16.062C47.9796 16.6167 47.6632 17.1193 47.2386 17.57C46.8139 18.0207 46.2809 18.3803 45.6396 18.649C44.9982 18.9177 44.2486 19.052 43.3906 19.052H41.5446ZM39.9586 19.052V9.445H41.8046V19.052H39.9586ZM54.2996 19V16.907H54.0006V14.58C54.0006 14.1727 53.9009 13.8693 53.7016 13.67C53.5023 13.4707 53.1946 13.371 52.7786 13.371C52.5619 13.371 52.3019 13.3753 51.9986 13.384C51.6953 13.3927 51.3876 13.4057 51.0756 13.423C50.7723 13.4317 50.4993 13.4447 50.2566 13.462V11.928C50.4559 11.9107 50.6813 11.8933 50.9326 11.876C51.1839 11.8587 51.4396 11.85 51.6996 11.85C51.9683 11.8413 52.2196 11.837 52.4536 11.837C53.1816 11.837 53.7839 11.9323 54.2606 12.123C54.7459 12.3137 55.1099 12.6127 55.3526 13.02C55.6039 13.4273 55.7296 13.9603 55.7296 14.619V19H54.2996ZM52.0246 19.182C51.5133 19.182 51.0626 19.091 50.6726 18.909C50.2913 18.727 49.9923 18.467 49.7756 18.129C49.5676 17.791 49.4636 17.3837 49.4636 16.907C49.4636 16.387 49.5893 15.9623 49.8406 15.633C50.1006 15.3037 50.4603 15.0567 50.9196 14.892C51.3876 14.7273 51.9336 14.645 52.5576 14.645H54.1956V15.724H52.5316C52.1156 15.724 51.7949 15.828 51.5696 16.036C51.3529 16.2353 51.2446 16.4953 51.2446 16.816C51.2446 17.1367 51.3529 17.3967 51.5696 17.596C51.7949 17.7953 52.1156 17.895 52.5316 17.895C52.7829 17.895 53.0126 17.8517 53.2206 17.765C53.4373 17.6697 53.6149 17.5137 53.7536 17.297C53.9009 17.0717 53.9833 16.7683 54.0006 16.387L54.4426 16.894C54.3993 17.388 54.2779 17.804 54.0786 18.142C53.8879 18.48 53.6193 18.74 53.2726 18.922C52.9346 19.0953 52.5186 19.182 52.0246 19.182ZM57.8342 19V11.772C57.8342 10.966 58.0552 10.3723 58.4972 9.991C58.9479 9.601 59.6109 9.406 60.4862 9.406H61.3702V10.797H60.3562C60.0875 10.797 59.8795 10.8707 59.7322 11.018C59.5935 11.1567 59.5242 11.356 59.5242 11.616V19H57.8342ZM56.9502 13.384V12.058H61.4872V13.384H56.9502ZM65.8113 19.091C65.1613 19.091 64.624 19.0087 64.1993 18.844C63.7833 18.6707 63.4713 18.3847 63.2633 17.986C63.0553 17.5787 62.9513 17.0327 62.9513 16.348L62.9643 9.952H64.6543L64.6413 16.465C64.6413 16.8117 64.7323 17.0803 64.9143 17.271C65.105 17.453 65.3736 17.544 65.7203 17.544H66.8253V19.091H65.8113ZM61.8333 13.267V11.941H66.8253V13.267H61.8333ZM72.5936 19V16.907H72.2946V14.58C72.2946 14.1727 72.1949 13.8693 71.9956 13.67C71.7962 13.4707 71.4886 13.371 71.0726 13.371C70.8559 13.371 70.5959 13.3753 70.2926 13.384C69.9892 13.3927 69.6816 13.4057 69.3696 13.423C69.0662 13.4317 68.7932 13.4447 68.5506 13.462V11.928C68.7499 11.9107 68.9752 11.8933 69.2266 11.876C69.4779 11.8587 69.7336 11.85 69.9936 11.85C70.2622 11.8413 70.5136 11.837 70.7476 11.837C71.4756 11.837 72.0779 11.9323 72.5546 12.123C73.0399 12.3137 73.4039 12.6127 73.6466 13.02C73.8979 13.4273 74.0236 13.9603 74.0236 14.619V19H72.5936ZM70.3186 19.182C69.8072 19.182 69.3566 19.091 68.9666 18.909C68.5852 18.727 68.2862 18.467 68.0696 18.129C67.8616 17.791 67.7576 17.3837 67.7576 16.907C67.7576 16.387 67.8832 15.9623 68.1346 15.633C68.3946 15.3037 68.7542 15.0567 69.2136 14.892C69.6816 14.7273 70.2276 14.645 70.8516 14.645H72.4896V15.724H70.8256C70.4096 15.724 70.0889 15.828 69.8636 16.036C69.6469 16.2353 69.5386 16.4953 69.5386 16.816C69.5386 17.1367 69.6469 17.3967 69.8636 17.596C70.0889 17.7953 70.4096 17.895 70.8256 17.895C71.0769 17.895 71.3066 17.8517 71.5146 17.765C71.7312 17.6697 71.9089 17.5137 72.0476 17.297C72.1949 17.0717 72.2772 16.7683 72.2946 16.387L72.7366 16.894C72.6932 17.388 72.5719 17.804 72.3726 18.142C72.1819 18.48 71.9132 18.74 71.5666 18.922C71.2286 19.0953 70.8126 19.182 70.3186 19.182ZM75.9591 19V11.941H77.3891V14.931H77.3501C77.3501 13.917 77.5668 13.15 78.0001 12.63C78.4335 12.11 79.0705 11.85 79.9111 11.85H80.1711V13.423H79.6771C79.0705 13.423 78.5981 13.5877 78.2601 13.917C77.9308 14.2377 77.7661 14.7057 77.7661 15.321V19H75.9591ZM86.2007 19V10.875H88.0467V19H86.2007ZM83.4577 11.135V9.51H90.7897V11.135H83.4577ZM93.954 19.221C93.1393 19.221 92.5066 18.9523 92.056 18.415C91.614 17.8777 91.393 17.0803 91.393 16.023V11.928H93.2V16.179C93.2 16.6123 93.3213 16.959 93.564 17.219C93.8066 17.4703 94.136 17.596 94.552 17.596C94.968 17.596 95.306 17.4617 95.566 17.193C95.8346 16.9243 95.969 16.5603 95.969 16.101V11.928H97.776V19H96.346V15.997H96.489C96.489 16.7077 96.398 17.3013 96.216 17.778C96.034 18.2547 95.761 18.6143 95.397 18.857C95.033 19.0997 94.578 19.221 94.032 19.221H93.954ZM102.608 21.782C102.27 21.782 101.923 21.769 101.568 21.743C101.221 21.717 100.896 21.6823 100.593 21.639V20.131C100.905 20.1657 101.238 20.196 101.594 20.222C101.949 20.2567 102.283 20.274 102.595 20.274C103.175 20.274 103.643 20.2047 103.999 20.066C104.363 19.9273 104.627 19.7063 104.792 19.403C104.965 19.1083 105.052 18.7313 105.052 18.272V16.881L105.442 15.997C105.416 16.647 105.281 17.2017 105.039 17.661C104.796 18.1117 104.467 18.4583 104.051 18.701C103.635 18.935 103.154 19.052 102.608 19.052C102.122 19.052 101.68 18.961 101.282 18.779C100.892 18.597 100.554 18.3457 100.268 18.025C99.9904 17.7043 99.7737 17.3273 99.6177 16.894C99.4617 16.4607 99.3837 15.997 99.3837 15.503V15.23C99.3837 14.736 99.4617 14.2767 99.6177 13.852C99.7824 13.4187 100.012 13.0417 100.307 12.721C100.601 12.4003 100.952 12.1533 101.36 11.98C101.767 11.8067 102.218 11.72 102.712 11.72C103.292 11.72 103.795 11.8457 104.22 12.097C104.653 12.3483 104.991 12.7123 105.234 13.189C105.476 13.6657 105.611 14.2507 105.637 14.944L105.325 14.996V11.941H106.755V18.168C106.755 19.026 106.607 19.7193 106.313 20.248C106.018 20.7767 105.563 21.1623 104.948 21.405C104.341 21.6563 103.561 21.782 102.608 21.782ZM103.128 17.505C103.474 17.505 103.791 17.427 104.077 17.271C104.363 17.115 104.592 16.8897 104.766 16.595C104.939 16.3003 105.026 15.945 105.026 15.529V15.074C105.026 14.6753 104.935 14.3373 104.753 14.06C104.579 13.7827 104.35 13.5747 104.064 13.436C103.778 13.2887 103.466 13.215 103.128 13.215C102.746 13.215 102.408 13.306 102.114 13.488C101.828 13.6613 101.602 13.9083 101.438 14.229C101.273 14.5497 101.191 14.931 101.191 15.373C101.191 15.8063 101.273 16.1833 101.438 16.504C101.602 16.8247 101.828 17.0717 102.114 17.245C102.408 17.4183 102.746 17.505 103.128 17.505ZM113.003 19V16.907H112.704V14.58C112.704 14.1727 112.604 13.8693 112.405 13.67C112.205 13.4707 111.898 13.371 111.482 13.371C111.265 13.371 111.005 13.3753 110.702 13.384C110.398 13.3927 110.091 13.4057 109.779 13.423C109.475 13.4317 109.202 13.4447 108.96 13.462V11.928C109.159 11.9107 109.384 11.8933 109.636 11.876C109.887 11.8587 110.143 11.85 110.403 11.85C110.671 11.8413 110.923 11.837 111.157 11.837C111.885 11.837 112.487 11.9323 112.964 12.123C113.449 12.3137 113.813 12.6127 114.056 13.02C114.307 13.4273 114.433 13.9603 114.433 14.619V19H113.003ZM110.728 19.182C110.216 19.182 109.766 19.091 109.376 18.909C108.994 18.727 108.695 18.467 108.479 18.129C108.271 17.791 108.167 17.3837 108.167 16.907C108.167 16.387 108.292 15.9623 108.544 15.633C108.804 15.3037 109.163 15.0567 109.623 14.892C110.091 14.7273 110.637 14.645 111.261 14.645H112.899V15.724H111.235C110.819 15.724 110.498 15.828 110.273 16.036C110.056 16.2353 109.948 16.4953 109.948 16.816C109.948 17.1367 110.056 17.3967 110.273 17.596C110.498 17.7953 110.819 17.895 111.235 17.895C111.486 17.895 111.716 17.8517 111.924 17.765C112.14 17.6697 112.318 17.5137 112.457 17.297C112.604 17.0717 112.686 16.7683 112.704 16.387L113.146 16.894C113.102 17.388 112.981 17.804 112.782 18.142C112.591 18.48 112.322 18.74 111.976 18.922C111.638 19.0953 111.222 19.182 110.728 19.182ZM118.929 19.221C117.959 19.221 117.196 19.0173 116.641 18.61C116.095 18.194 115.809 17.622 115.783 16.894H117.408C117.434 17.1367 117.569 17.3577 117.811 17.557C118.054 17.7563 118.435 17.856 118.955 17.856C119.389 17.856 119.731 17.778 119.982 17.622C120.242 17.466 120.372 17.2537 120.372 16.985C120.372 16.751 120.273 16.5647 120.073 16.426C119.883 16.2873 119.553 16.1963 119.085 16.153L118.461 16.088C117.673 16.0013 117.066 15.776 116.641 15.412C116.217 15.048 116.004 14.5627 116.004 13.956C116.004 13.4707 116.126 13.0633 116.368 12.734C116.611 12.4047 116.945 12.1577 117.369 11.993C117.803 11.8197 118.297 11.733 118.851 11.733C119.718 11.733 120.42 11.9237 120.957 12.305C121.495 12.6863 121.776 13.2453 121.802 13.982H120.177C120.16 13.7393 120.039 13.5313 119.813 13.358C119.588 13.1847 119.263 13.098 118.838 13.098C118.457 13.098 118.162 13.1717 117.954 13.319C117.746 13.4663 117.642 13.657 117.642 13.891C117.642 14.1163 117.725 14.2897 117.889 14.411C118.063 14.5323 118.34 14.6147 118.721 14.658L119.345 14.723C120.177 14.8097 120.827 15.0393 121.295 15.412C121.772 15.7847 122.01 16.2873 122.01 16.92C122.01 17.388 121.88 17.7953 121.62 18.142C121.369 18.48 121.014 18.7443 120.554 18.935C120.095 19.1257 119.553 19.221 118.929 19.221ZM123.503 19V11.941H124.933V14.97H124.803C124.803 14.2593 124.894 13.6657 125.076 13.189C125.258 12.7037 125.527 12.3397 125.882 12.097C126.246 11.8457 126.697 11.72 127.234 11.72H127.312C127.858 11.72 128.309 11.8457 128.664 12.097C129.028 12.3397 129.297 12.7037 129.47 13.189C129.652 13.6657 129.743 14.2593 129.743 14.97H129.288C129.288 14.2593 129.379 13.6657 129.561 13.189C129.752 12.7037 130.025 12.3397 130.38 12.097C130.744 11.8457 131.195 11.72 131.732 11.72H131.81C132.356 11.72 132.811 11.8457 133.175 12.097C133.539 12.3397 133.812 12.7037 133.994 13.189C134.185 13.6657 134.28 14.2593 134.28 14.97V19H132.473V14.801C132.473 14.359 132.36 14.008 132.135 13.748C131.91 13.4793 131.589 13.345 131.173 13.345C130.757 13.345 130.423 13.4837 130.172 13.761C129.921 14.0297 129.795 14.3937 129.795 14.853V19H127.988V14.801C127.988 14.359 127.875 14.008 127.65 13.748C127.425 13.4793 127.104 13.345 126.688 13.345C126.272 13.345 125.938 13.4837 125.687 13.761C125.436 14.0297 125.31 14.3937 125.31 14.853V19H123.503ZM138.616 19.221C137.801 19.221 137.169 18.9523 136.718 18.415C136.276 17.8777 136.055 17.0803 136.055 16.023V11.928H137.862V16.179C137.862 16.6123 137.983 16.959 138.226 17.219C138.469 17.4703 138.798 17.596 139.214 17.596C139.63 17.596 139.968 17.4617 140.228 17.193C140.497 16.9243 140.631 16.5603 140.631 16.101V11.928H142.438V19H141.008V15.997H141.151C141.151 16.7077 141.06 17.3013 140.878 17.778C140.696 18.2547 140.423 18.6143 140.059 18.857C139.695 19.0997 139.24 19.221 138.694 19.221H138.616ZM144.579 15.919V9.51H146.425V15.919H144.579ZM144.436 19V17.076H146.568V19H144.436Z"/>
</mask>
<path d="M8.20577 19.065V17.583H10.5848C11.0181 17.583 11.3474 17.466 11.5728 17.232C11.7981 16.9893 11.9108 16.66 11.9108 16.244C11.9108 15.828 11.7981 15.5073 11.5728 15.282C11.3474 15.048 11.0181 14.931 10.5848 14.931H8.20577V13.8H10.4548C11.0874 13.8 11.6508 13.878 12.1448 14.034C12.6474 14.1813 13.0374 14.4327 13.3148 14.788C13.6008 15.1433 13.7438 15.62 13.7438 16.218V16.4C13.7438 16.9633 13.6181 17.4443 13.3668 17.843C13.1241 18.233 12.7558 18.5363 12.2618 18.753C11.7764 18.961 11.1741 19.065 10.4548 19.065H8.20577ZM6.65877 19.065V9.445H8.46577V19.065H6.65877ZM8.20577 14.632V13.501H10.2338C10.6758 13.501 11.0008 13.384 11.2088 13.15C11.4168 12.916 11.5208 12.604 11.5208 12.214C11.5208 11.824 11.4168 11.512 11.2088 11.278C11.0008 11.044 10.6758 10.927 10.2338 10.927H8.20577V9.445H10.0648C11.1394 9.445 11.9541 9.67033 12.5088 10.121C13.0721 10.5717 13.3538 11.2173 13.3538 12.058V12.24C13.3538 12.8293 13.2108 13.3017 12.9248 13.657C12.6474 14.0037 12.2618 14.255 11.7678 14.411C11.2738 14.5583 10.7061 14.632 10.0648 14.632H8.20577ZM17.871 19.221C17.0563 19.221 16.4236 18.9523 15.973 18.415C15.531 17.8777 15.31 17.0803 15.31 16.023V11.928H17.117V16.179C17.117 16.6123 17.2383 16.959 17.481 17.219C17.7236 17.4703 18.053 17.596 18.469 17.596C18.885 17.596 19.223 17.4617 19.483 17.193C19.7516 16.9243 19.886 16.5603 19.886 16.101V11.928H21.693V19H20.263V15.997H20.406C20.406 16.7077 20.315 17.3013 20.133 17.778C19.951 18.2547 19.678 18.6143 19.314 18.857C18.95 19.0997 18.495 19.221 17.949 19.221H17.871ZM28.0457 19V16.907H27.7467V14.58C27.7467 14.1727 27.647 13.8693 27.4477 13.67C27.2484 13.4707 26.9407 13.371 26.5247 13.371C26.308 13.371 26.048 13.3753 25.7447 13.384C25.4414 13.3927 25.1337 13.4057 24.8217 13.423C24.5184 13.4317 24.2454 13.4447 24.0027 13.462V11.928C24.202 11.9107 24.4274 11.8933 24.6787 11.876C24.93 11.8587 25.1857 11.85 25.4457 11.85C25.7144 11.8413 25.9657 11.837 26.1997 11.837C26.9277 11.837 27.53 11.9323 28.0067 12.123C28.492 12.3137 28.856 12.6127 29.0987 13.02C29.35 13.4273 29.4757 13.9603 29.4757 14.619V19H28.0457ZM25.7707 19.182C25.2594 19.182 24.8087 19.091 24.4187 18.909C24.0374 18.727 23.7384 18.467 23.5217 18.129C23.3137 17.791 23.2097 17.3837 23.2097 16.907C23.2097 16.387 23.3354 15.9623 23.5867 15.633C23.8467 15.3037 24.2064 15.0567 24.6657 14.892C25.1337 14.7273 25.6797 14.645 26.3037 14.645H27.9417V15.724H26.2777C25.8617 15.724 25.541 15.828 25.3157 16.036C25.099 16.2353 24.9907 16.4953 24.9907 16.816C24.9907 17.1367 25.099 17.3967 25.3157 17.596C25.541 17.7953 25.8617 17.895 26.2777 17.895C26.529 17.895 26.7587 17.8517 26.9667 17.765C27.1834 17.6697 27.361 17.5137 27.4997 17.297C27.647 17.0717 27.7294 16.7683 27.7467 16.387L28.1887 16.894C28.1454 17.388 28.024 17.804 27.8247 18.142C27.634 18.48 27.3654 18.74 27.0187 18.922C26.6807 19.0953 26.2647 19.182 25.7707 19.182ZM34.4793 19.091C33.8293 19.091 33.2919 19.0087 32.8673 18.844C32.4513 18.6707 32.1393 18.3847 31.9313 17.986C31.7233 17.5787 31.6193 17.0327 31.6193 16.348L31.6323 9.952H33.3223L33.3093 16.465C33.3093 16.8117 33.4003 17.0803 33.5823 17.271C33.7729 17.453 34.0416 17.544 34.3883 17.544H35.4933V19.091H34.4793ZM30.5013 13.267V11.941H35.4933V13.267H30.5013ZM41.5446 19.052V17.336H43.5076C44.0016 17.336 44.4392 17.2623 44.8206 17.115C45.2106 16.959 45.5399 16.7423 45.8086 16.465C46.0772 16.1877 46.2809 15.8627 46.4196 15.49C46.5669 15.1087 46.6406 14.6883 46.6406 14.229C46.6406 13.7523 46.5669 13.3277 46.4196 12.955C46.2809 12.5737 46.0772 12.2487 45.8086 11.98C45.5399 11.7113 45.2106 11.5077 44.8206 11.369C44.4392 11.2303 44.0016 11.161 43.5076 11.161H41.5446V9.445H43.3906C44.2486 9.445 44.9982 9.57067 45.6396 9.822C46.2809 10.0733 46.8139 10.42 47.2386 10.862C47.6632 11.2953 47.9796 11.7937 48.1876 12.357C48.4042 12.9117 48.5126 13.488 48.5126 14.086V14.372C48.5126 14.944 48.4042 15.5073 48.1876 16.062C47.9796 16.6167 47.6632 17.1193 47.2386 17.57C46.8139 18.0207 46.2809 18.3803 45.6396 18.649C44.9982 18.9177 44.2486 19.052 43.3906 19.052H41.5446ZM39.9586 19.052V9.445H41.8046V19.052H39.9586ZM54.2996 19V16.907H54.0006V14.58C54.0006 14.1727 53.9009 13.8693 53.7016 13.67C53.5023 13.4707 53.1946 13.371 52.7786 13.371C52.5619 13.371 52.3019 13.3753 51.9986 13.384C51.6953 13.3927 51.3876 13.4057 51.0756 13.423C50.7723 13.4317 50.4993 13.4447 50.2566 13.462V11.928C50.4559 11.9107 50.6813 11.8933 50.9326 11.876C51.1839 11.8587 51.4396 11.85 51.6996 11.85C51.9683 11.8413 52.2196 11.837 52.4536 11.837C53.1816 11.837 53.7839 11.9323 54.2606 12.123C54.7459 12.3137 55.1099 12.6127 55.3526 13.02C55.6039 13.4273 55.7296 13.9603 55.7296 14.619V19H54.2996ZM52.0246 19.182C51.5133 19.182 51.0626 19.091 50.6726 18.909C50.2913 18.727 49.9923 18.467 49.7756 18.129C49.5676 17.791 49.4636 17.3837 49.4636 16.907C49.4636 16.387 49.5893 15.9623 49.8406 15.633C50.1006 15.3037 50.4603 15.0567 50.9196 14.892C51.3876 14.7273 51.9336 14.645 52.5576 14.645H54.1956V15.724H52.5316C52.1156 15.724 51.7949 15.828 51.5696 16.036C51.3529 16.2353 51.2446 16.4953 51.2446 16.816C51.2446 17.1367 51.3529 17.3967 51.5696 17.596C51.7949 17.7953 52.1156 17.895 52.5316 17.895C52.7829 17.895 53.0126 17.8517 53.2206 17.765C53.4373 17.6697 53.6149 17.5137 53.7536 17.297C53.9009 17.0717 53.9833 16.7683 54.0006 16.387L54.4426 16.894C54.3993 17.388 54.2779 17.804 54.0786 18.142C53.8879 18.48 53.6193 18.74 53.2726 18.922C52.9346 19.0953 52.5186 19.182 52.0246 19.182ZM57.8342 19V11.772C57.8342 10.966 58.0552 10.3723 58.4972 9.991C58.9479 9.601 59.6109 9.406 60.4862 9.406H61.3702V10.797H60.3562C60.0875 10.797 59.8795 10.8707 59.7322 11.018C59.5935 11.1567 59.5242 11.356 59.5242 11.616V19H57.8342ZM56.9502 13.384V12.058H61.4872V13.384H56.9502ZM65.8113 19.091C65.1613 19.091 64.624 19.0087 64.1993 18.844C63.7833 18.6707 63.4713 18.3847 63.2633 17.986C63.0553 17.5787 62.9513 17.0327 62.9513 16.348L62.9643 9.952H64.6543L64.6413 16.465C64.6413 16.8117 64.7323 17.0803 64.9143 17.271C65.105 17.453 65.3736 17.544 65.7203 17.544H66.8253V19.091H65.8113ZM61.8333 13.267V11.941H66.8253V13.267H61.8333ZM72.5936 19V16.907H72.2946V14.58C72.2946 14.1727 72.1949 13.8693 71.9956 13.67C71.7962 13.4707 71.4886 13.371 71.0726 13.371C70.8559 13.371 70.5959 13.3753 70.2926 13.384C69.9892 13.3927 69.6816 13.4057 69.3696 13.423C69.0662 13.4317 68.7932 13.4447 68.5506 13.462V11.928C68.7499 11.9107 68.9752 11.8933 69.2266 11.876C69.4779 11.8587 69.7336 11.85 69.9936 11.85C70.2622 11.8413 70.5136 11.837 70.7476 11.837C71.4756 11.837 72.0779 11.9323 72.5546 12.123C73.0399 12.3137 73.4039 12.6127 73.6466 13.02C73.8979 13.4273 74.0236 13.9603 74.0236 14.619V19H72.5936ZM70.3186 19.182C69.8072 19.182 69.3566 19.091 68.9666 18.909C68.5852 18.727 68.2862 18.467 68.0696 18.129C67.8616 17.791 67.7576 17.3837 67.7576 16.907C67.7576 16.387 67.8832 15.9623 68.1346 15.633C68.3946 15.3037 68.7542 15.0567 69.2136 14.892C69.6816 14.7273 70.2276 14.645 70.8516 14.645H72.4896V15.724H70.8256C70.4096 15.724 70.0889 15.828 69.8636 16.036C69.6469 16.2353 69.5386 16.4953 69.5386 16.816C69.5386 17.1367 69.6469 17.3967 69.8636 17.596C70.0889 17.7953 70.4096 17.895 70.8256 17.895C71.0769 17.895 71.3066 17.8517 71.5146 17.765C71.7312 17.6697 71.9089 17.5137 72.0476 17.297C72.1949 17.0717 72.2772 16.7683 72.2946 16.387L72.7366 16.894C72.6932 17.388 72.5719 17.804 72.3726 18.142C72.1819 18.48 71.9132 18.74 71.5666 18.922C71.2286 19.0953 70.8126 19.182 70.3186 19.182ZM75.9591 19V11.941H77.3891V14.931H77.3501C77.3501 13.917 77.5668 13.15 78.0001 12.63C78.4335 12.11 79.0705 11.85 79.9111 11.85H80.1711V13.423H79.6771C79.0705 13.423 78.5981 13.5877 78.2601 13.917C77.9308 14.2377 77.7661 14.7057 77.7661 15.321V19H75.9591ZM86.2007 19V10.875H88.0467V19H86.2007ZM83.4577 11.135V9.51H90.7897V11.135H83.4577ZM93.954 19.221C93.1393 19.221 92.5066 18.9523 92.056 18.415C91.614 17.8777 91.393 17.0803 91.393 16.023V11.928H93.2V16.179C93.2 16.6123 93.3213 16.959 93.564 17.219C93.8066 17.4703 94.136 17.596 94.552 17.596C94.968 17.596 95.306 17.4617 95.566 17.193C95.8346 16.9243 95.969 16.5603 95.969 16.101V11.928H97.776V19H96.346V15.997H96.489C96.489 16.7077 96.398 17.3013 96.216 17.778C96.034 18.2547 95.761 18.6143 95.397 18.857C95.033 19.0997 94.578 19.221 94.032 19.221H93.954ZM102.608 21.782C102.27 21.782 101.923 21.769 101.568 21.743C101.221 21.717 100.896 21.6823 100.593 21.639V20.131C100.905 20.1657 101.238 20.196 101.594 20.222C101.949 20.2567 102.283 20.274 102.595 20.274C103.175 20.274 103.643 20.2047 103.999 20.066C104.363 19.9273 104.627 19.7063 104.792 19.403C104.965 19.1083 105.052 18.7313 105.052 18.272V16.881L105.442 15.997C105.416 16.647 105.281 17.2017 105.039 17.661C104.796 18.1117 104.467 18.4583 104.051 18.701C103.635 18.935 103.154 19.052 102.608 19.052C102.122 19.052 101.68 18.961 101.282 18.779C100.892 18.597 100.554 18.3457 100.268 18.025C99.9904 17.7043 99.7737 17.3273 99.6177 16.894C99.4617 16.4607 99.3837 15.997 99.3837 15.503V15.23C99.3837 14.736 99.4617 14.2767 99.6177 13.852C99.7824 13.4187 100.012 13.0417 100.307 12.721C100.601 12.4003 100.952 12.1533 101.36 11.98C101.767 11.8067 102.218 11.72 102.712 11.72C103.292 11.72 103.795 11.8457 104.22 12.097C104.653 12.3483 104.991 12.7123 105.234 13.189C105.476 13.6657 105.611 14.2507 105.637 14.944L105.325 14.996V11.941H106.755V18.168C106.755 19.026 106.607 19.7193 106.313 20.248C106.018 20.7767 105.563 21.1623 104.948 21.405C104.341 21.6563 103.561 21.782 102.608 21.782ZM103.128 17.505C103.474 17.505 103.791 17.427 104.077 17.271C104.363 17.115 104.592 16.8897 104.766 16.595C104.939 16.3003 105.026 15.945 105.026 15.529V15.074C105.026 14.6753 104.935 14.3373 104.753 14.06C104.579 13.7827 104.35 13.5747 104.064 13.436C103.778 13.2887 103.466 13.215 103.128 13.215C102.746 13.215 102.408 13.306 102.114 13.488C101.828 13.6613 101.602 13.9083 101.438 14.229C101.273 14.5497 101.191 14.931 101.191 15.373C101.191 15.8063 101.273 16.1833 101.438 16.504C101.602 16.8247 101.828 17.0717 102.114 17.245C102.408 17.4183 102.746 17.505 103.128 17.505ZM113.003 19V16.907H112.704V14.58C112.704 14.1727 112.604 13.8693 112.405 13.67C112.205 13.4707 111.898 13.371 111.482 13.371C111.265 13.371 111.005 13.3753 110.702 13.384C110.398 13.3927 110.091 13.4057 109.779 13.423C109.475 13.4317 109.202 13.4447 108.96 13.462V11.928C109.159 11.9107 109.384 11.8933 109.636 11.876C109.887 11.8587 110.143 11.85 110.403 11.85C110.671 11.8413 110.923 11.837 111.157 11.837C111.885 11.837 112.487 11.9323 112.964 12.123C113.449 12.3137 113.813 12.6127 114.056 13.02C114.307 13.4273 114.433 13.9603 114.433 14.619V19H113.003ZM110.728 19.182C110.216 19.182 109.766 19.091 109.376 18.909C108.994 18.727 108.695 18.467 108.479 18.129C108.271 17.791 108.167 17.3837 108.167 16.907C108.167 16.387 108.292 15.9623 108.544 15.633C108.804 15.3037 109.163 15.0567 109.623 14.892C110.091 14.7273 110.637 14.645 111.261 14.645H112.899V15.724H111.235C110.819 15.724 110.498 15.828 110.273 16.036C110.056 16.2353 109.948 16.4953 109.948 16.816C109.948 17.1367 110.056 17.3967 110.273 17.596C110.498 17.7953 110.819 17.895 111.235 17.895C111.486 17.895 111.716 17.8517 111.924 17.765C112.14 17.6697 112.318 17.5137 112.457 17.297C112.604 17.0717 112.686 16.7683 112.704 16.387L113.146 16.894C113.102 17.388 112.981 17.804 112.782 18.142C112.591 18.48 112.322 18.74 111.976 18.922C111.638 19.0953 111.222 19.182 110.728 19.182ZM118.929 19.221C117.959 19.221 117.196 19.0173 116.641 18.61C116.095 18.194 115.809 17.622 115.783 16.894H117.408C117.434 17.1367 117.569 17.3577 117.811 17.557C118.054 17.7563 118.435 17.856 118.955 17.856C119.389 17.856 119.731 17.778 119.982 17.622C120.242 17.466 120.372 17.2537 120.372 16.985C120.372 16.751 120.273 16.5647 120.073 16.426C119.883 16.2873 119.553 16.1963 119.085 16.153L118.461 16.088C117.673 16.0013 117.066 15.776 116.641 15.412C116.217 15.048 116.004 14.5627 116.004 13.956C116.004 13.4707 116.126 13.0633 116.368 12.734C116.611 12.4047 116.945 12.1577 117.369 11.993C117.803 11.8197 118.297 11.733 118.851 11.733C119.718 11.733 120.42 11.9237 120.957 12.305C121.495 12.6863 121.776 13.2453 121.802 13.982H120.177C120.16 13.7393 120.039 13.5313 119.813 13.358C119.588 13.1847 119.263 13.098 118.838 13.098C118.457 13.098 118.162 13.1717 117.954 13.319C117.746 13.4663 117.642 13.657 117.642 13.891C117.642 14.1163 117.725 14.2897 117.889 14.411C118.063 14.5323 118.34 14.6147 118.721 14.658L119.345 14.723C120.177 14.8097 120.827 15.0393 121.295 15.412C121.772 15.7847 122.01 16.2873 122.01 16.92C122.01 17.388 121.88 17.7953 121.62 18.142C121.369 18.48 121.014 18.7443 120.554 18.935C120.095 19.1257 119.553 19.221 118.929 19.221ZM123.503 19V11.941H124.933V14.97H124.803C124.803 14.2593 124.894 13.6657 125.076 13.189C125.258 12.7037 125.527 12.3397 125.882 12.097C126.246 11.8457 126.697 11.72 127.234 11.72H127.312C127.858 11.72 128.309 11.8457 128.664 12.097C129.028 12.3397 129.297 12.7037 129.47 13.189C129.652 13.6657 129.743 14.2593 129.743 14.97H129.288C129.288 14.2593 129.379 13.6657 129.561 13.189C129.752 12.7037 130.025 12.3397 130.38 12.097C130.744 11.8457 131.195 11.72 131.732 11.72H131.81C132.356 11.72 132.811 11.8457 133.175 12.097C133.539 12.3397 133.812 12.7037 133.994 13.189C134.185 13.6657 134.28 14.2593 134.28 14.97V19H132.473V14.801C132.473 14.359 132.36 14.008 132.135 13.748C131.91 13.4793 131.589 13.345 131.173 13.345C130.757 13.345 130.423 13.4837 130.172 13.761C129.921 14.0297 129.795 14.3937 129.795 14.853V19H127.988V14.801C127.988 14.359 127.875 14.008 127.65 13.748C127.425 13.4793 127.104 13.345 126.688 13.345C126.272 13.345 125.938 13.4837 125.687 13.761C125.436 14.0297 125.31 14.3937 125.31 14.853V19H123.503ZM138.616 19.221C137.801 19.221 137.169 18.9523 136.718 18.415C136.276 17.8777 136.055 17.0803 136.055 16.023V11.928H137.862V16.179C137.862 16.6123 137.983 16.959 138.226 17.219C138.469 17.4703 138.798 17.596 139.214 17.596C139.63 17.596 139.968 17.4617 140.228 17.193C140.497 16.9243 140.631 16.5603 140.631 16.101V11.928H142.438V19H141.008V15.997H141.151C141.151 16.7077 141.06 17.3013 140.878 17.778C140.696 18.2547 140.423 18.6143 140.059 18.857C139.695 19.0997 139.24 19.221 138.694 19.221H138.616ZM144.579 15.919V9.51H146.425V15.919H144.579ZM144.436 19V17.076H146.568V19H144.436Z" fill="#144795"/>
<path d="M8.20577 19.065H7.20577V20.065H8.20577V19.065ZM8.20577 17.583V16.583H7.20577V17.583H8.20577ZM11.5728 17.232L12.2931 17.9256L12.2994 17.9191L12.3056 17.9125L11.5728 17.232ZM11.5728 15.282L10.8524 15.9756L10.859 15.9824L10.8657 15.9891L11.5728 15.282ZM8.20577 14.931H7.20577V15.931H8.20577V14.931ZM8.20577 13.8V12.8H7.20577V13.8H8.20577ZM12.1448 14.034L11.8436 14.9876L11.8535 14.9907L11.8635 14.9936L12.1448 14.034ZM13.3148 14.788L12.5265 15.4033L12.5311 15.4092L12.5358 15.415L13.3148 14.788ZM13.3668 17.843L12.5208 17.3097L12.5177 17.3147L13.3668 17.843ZM12.2618 18.753L12.6557 19.6722L12.6634 19.6688L12.2618 18.753ZM6.65877 19.065H5.65877V20.065H6.65877V19.065ZM6.65877 9.445V8.445H5.65877V9.445H6.65877ZM8.46577 9.445H9.46577V8.445H8.46577V9.445ZM8.46577 19.065V20.065H9.46577V19.065H8.46577ZM8.20577 14.632H7.20577V15.632H8.20577V14.632ZM8.20577 13.501V12.501H7.20577V13.501H8.20577ZM11.2088 13.15L11.9562 13.8144L11.9562 13.8144L11.2088 13.15ZM11.2088 11.278L11.9562 10.6136L11.9562 10.6136L11.2088 11.278ZM8.20577 10.927H7.20577V11.927H8.20577V10.927ZM8.20577 9.445V8.445H7.20577V9.445H8.20577ZM12.5088 10.121L11.8782 10.8971L11.8841 10.9019L12.5088 10.121ZM12.9248 13.657L12.1458 13.03L12.1439 13.0323L12.9248 13.657ZM11.7678 14.411L12.0536 15.3693L12.0613 15.367L12.0689 15.3646L11.7678 14.411ZM9.20577 19.065V17.583H7.20577V19.065H9.20577ZM8.20577 18.583H10.5848V16.583H8.20577V18.583ZM10.5848 18.583C11.1956 18.583 11.8226 18.4143 12.2931 17.9256L10.8524 16.5384C10.8523 16.5386 10.8519 16.5391 10.8495 16.5405C10.847 16.5422 10.8388 16.547 10.822 16.5529C10.7871 16.5654 10.7137 16.583 10.5848 16.583V18.583ZM12.3056 17.9125C12.7436 17.4407 12.9108 16.845 12.9108 16.244H10.9108C10.9108 16.475 10.8526 16.538 10.84 16.5515L12.3056 17.9125ZM12.9108 16.244C12.9108 15.6471 12.745 15.04 12.2799 14.5749L10.8657 15.9891C10.8671 15.9905 10.8684 15.992 10.8704 15.9952C10.8725 15.9986 10.8772 16.007 10.8828 16.023C10.8944 16.056 10.9108 16.1245 10.9108 16.244H12.9108ZM12.2931 14.5884C11.8226 14.0997 11.1956 13.931 10.5848 13.931V15.931C10.7137 15.931 10.7871 15.9486 10.822 15.9611C10.8388 15.967 10.847 15.9718 10.8495 15.9735C10.8519 15.9749 10.8523 15.9754 10.8524 15.9756L12.2931 14.5884ZM10.5848 13.931H8.20577V15.931H10.5848V13.931ZM9.20577 14.931V13.8H7.20577V14.931H9.20577ZM8.20577 14.8H10.4548V12.8H8.20577V14.8ZM10.4548 14.8C11.007 14.8 11.4658 14.8683 11.8436 14.9876L12.4459 13.0804C11.8357 12.8877 11.1679 12.8 10.4548 12.8V14.8ZM11.8635 14.9936C12.1989 15.0919 12.3979 15.2386 12.5265 15.4033L14.1031 14.1727C13.6769 13.6267 13.0959 13.2707 12.426 13.0744L11.8635 14.9936ZM12.5358 15.415C12.6396 15.544 12.7438 15.7766 12.7438 16.218H14.7438C14.7438 15.4634 14.562 14.7427 14.0938 14.161L12.5358 15.415ZM12.7438 16.218V16.4H14.7438V16.218H12.7438ZM12.7438 16.4C12.7438 16.8118 12.6533 17.0995 12.5208 17.3097L14.2127 18.3763C14.5829 17.7891 14.7438 17.1148 14.7438 16.4H12.7438ZM12.5177 17.3147C12.3992 17.5051 12.2023 17.6871 11.8601 17.8372L12.6634 19.6688C13.3092 19.3855 13.849 18.9609 14.2158 18.3713L12.5177 17.3147ZM11.8679 17.8339C11.5433 17.9729 11.0848 18.065 10.4548 18.065V20.065C11.2634 20.065 12.0095 19.9491 12.6557 19.6721L11.8679 17.8339ZM10.4548 18.065H8.20577V20.065H10.4548V18.065ZM7.65877 19.065V9.445H5.65877V19.065H7.65877ZM6.65877 10.445H8.46577V8.445H6.65877V10.445ZM7.46577 9.445V19.065H9.46577V9.445H7.46577ZM8.46577 18.065H6.65877V20.065H8.46577V18.065ZM9.20577 14.632V13.501H7.20577V14.632H9.20577ZM8.20577 14.501H10.2338V12.501H8.20577V14.501ZM10.2338 14.501C10.8401 14.501 11.4905 14.3382 11.9562 13.8144L10.4614 12.4856C10.4795 12.4652 10.4922 12.4645 10.4703 12.4724C10.442 12.4825 10.37 12.501 10.2338 12.501V14.501ZM11.9562 13.8144C12.3641 13.3554 12.5208 12.7864 12.5208 12.214H10.5208C10.5208 12.4216 10.4694 12.4766 10.4614 12.4856L11.9562 13.8144ZM12.5208 12.214C12.5208 11.6416 12.3641 11.0726 11.9562 10.6136L10.4614 11.9424C10.4694 11.9514 10.5208 12.0064 10.5208 12.214H12.5208ZM11.9562 10.6136C11.4905 10.0898 10.8401 9.927 10.2338 9.927V11.927C10.37 11.927 10.442 11.9455 10.4703 11.9556C10.4922 11.9635 10.4795 11.9628 10.4614 11.9424L11.9562 10.6136ZM10.2338 9.927H8.20577V11.927H10.2338V9.927ZM9.20577 10.927V9.445H7.20577V10.927H9.20577ZM8.20577 10.445H10.0648V8.445H8.20577V10.445ZM10.0648 10.445C11.0207 10.445 11.5721 10.6485 11.8782 10.8971L13.1394 9.34489C12.3361 8.69221 11.2582 8.445 10.0648 8.445V10.445ZM11.8841 10.9019C12.1695 11.1302 12.3538 11.4648 12.3538 12.058H14.3538C14.3538 10.9699 13.9748 10.0132 13.1335 9.34013L11.8841 10.9019ZM12.3538 12.058V12.24H14.3538V12.058H12.3538ZM12.3538 12.24C12.3538 12.6687 12.2515 12.8986 12.1458 13.03L13.7038 14.284C14.17 13.7047 14.3538 12.99 14.3538 12.24H12.3538ZM12.1439 13.0323C12.01 13.1997 11.804 13.3509 11.4666 13.4574L12.0689 15.3646C12.7196 15.1591 13.2849 14.8076 13.7056 14.2817L12.1439 13.0323ZM11.482 13.4527C11.1001 13.5666 10.6319 13.632 10.0648 13.632V15.632C10.7803 15.632 11.4474 15.5501 12.0536 15.3693L11.482 13.4527ZM10.0648 13.632H8.20577V15.632H10.0648V13.632ZM15.973 18.415L15.2006 19.0503L15.2068 19.0576L15.973 18.415ZM15.31 11.928V10.928H14.31V11.928H15.31ZM17.117 11.928H18.117V10.928H17.117V11.928ZM17.481 17.219L16.7499 17.9013L16.7557 17.9075L16.7616 17.9136L17.481 17.219ZM19.483 17.193L18.7759 16.4859L18.7701 16.4917L18.7644 16.4976L19.483 17.193ZM19.886 11.928V10.928H18.886V11.928H19.886ZM21.693 11.928H22.693V10.928H21.693V11.928ZM21.693 19V20H22.693V19H21.693ZM20.263 19H19.263V20H20.263V19ZM20.263 15.997V14.997H19.263V15.997H20.263ZM20.406 15.997H21.406V14.997H20.406V15.997ZM20.133 17.778L19.1987 17.4213L20.133 17.778ZM19.314 18.857L19.8687 19.6891L19.8687 19.6891L19.314 18.857ZM17.871 18.221C17.2988 18.221 16.9681 18.0454 16.7392 17.7724L15.2068 19.0576C15.8792 19.8593 16.8138 20.221 17.871 20.221V18.221ZM16.7453 17.7797C16.51 17.4937 16.31 16.9638 16.31 16.023H14.31C14.31 17.1969 14.5519 18.2616 15.2007 19.0503L16.7453 17.7797ZM16.31 16.023V11.928H14.31V16.023H16.31ZM15.31 12.928H17.117V10.928H15.31V12.928ZM16.117 11.928V16.179H18.117V11.928H16.117ZM16.117 16.179C16.117 16.8073 16.2984 17.4175 16.7499 17.9013L18.212 16.5367C18.1782 16.5005 18.117 16.4174 18.117 16.179H16.117ZM16.7616 17.9136C17.2282 18.3969 17.8375 18.596 18.469 18.596V16.596C18.2684 16.596 18.219 16.5438 18.2004 16.5244L16.7616 17.9136ZM18.469 18.596C19.1223 18.596 19.731 18.3746 20.2016 17.8884L18.7644 16.4976C18.7149 16.5487 18.6477 16.596 18.469 16.596V18.596ZM20.1901 17.9001C20.6843 17.4058 20.886 16.7664 20.886 16.101H18.886C18.886 16.3543 18.8189 16.4428 18.7759 16.4859L20.1901 17.9001ZM20.886 16.101V11.928H18.886V16.101H20.886ZM19.886 12.928H21.693V10.928H19.886V12.928ZM20.693 11.928V19H22.693V11.928H20.693ZM21.693 18H20.263V20H21.693V18ZM21.263 19V15.997H19.263V19H21.263ZM20.263 16.997H20.406V14.997H20.263V16.997ZM19.406 15.997C19.406 16.6301 19.3238 17.0937 19.1987 17.4213L21.0672 18.1347C21.3061 17.509 21.406 16.7852 21.406 15.997H19.406ZM19.1987 17.4213C19.0781 17.7372 18.923 17.9158 18.7593 18.0249L19.8687 19.6891C20.4329 19.3129 20.8238 18.7721 21.0672 18.1347L19.1987 17.4213ZM18.7593 18.0249C18.5961 18.1337 18.3466 18.221 17.949 18.221V20.221C18.6433 20.221 19.3038 20.0656 19.8687 19.6891L18.7593 18.0249ZM17.949 18.221H17.871V20.221H17.949V18.221ZM28.0457 19H27.0457V20H28.0457V19ZM28.0457 16.907H29.0457V15.907H28.0457V16.907ZM27.7467 16.907H26.7467V17.907H27.7467V16.907ZM25.7447 13.384L25.7733 14.3836L25.7733 14.3836L25.7447 13.384ZM24.8217 13.423L24.8503 14.4226L24.8637 14.4222L24.8772 14.4215L24.8217 13.423ZM24.0027 13.462H23.0027V14.536L24.0739 14.4595L24.0027 13.462ZM24.0027 11.928L23.9161 10.9318L23.0027 11.0112V11.928H24.0027ZM24.6787 11.876L24.6099 10.8784L24.6099 10.8784L24.6787 11.876ZM25.4457 11.85V12.85H25.4618L25.4779 12.8495L25.4457 11.85ZM28.0067 12.123L27.6353 13.0515L27.641 13.0538L28.0067 12.123ZM29.0987 13.02L28.2396 13.5318L28.2436 13.5385L28.2477 13.5451L29.0987 13.02ZM29.4757 19V20H30.4757V19H29.4757ZM24.4187 18.909L23.988 19.8115L23.9958 19.8152L24.4187 18.909ZM23.5217 18.129L22.67 18.6531L22.6749 18.6609L22.6798 18.6687L23.5217 18.129ZM23.5867 15.633L22.8018 15.0134L22.7967 15.0198L22.7917 15.0263L23.5867 15.633ZM24.6657 14.892L24.3338 13.9487L24.3282 13.9507L24.6657 14.892ZM27.9417 14.645H28.9417V13.645H27.9417V14.645ZM27.9417 15.724V16.724H28.9417V15.724H27.9417ZM25.3157 16.036L25.9928 16.7719L25.994 16.7708L25.3157 16.036ZM25.3157 17.596L24.6386 18.3319L24.6458 18.3385L24.6531 18.345L25.3157 17.596ZM26.9667 17.765L27.3513 18.6881L27.3604 18.6843L27.3694 18.6803L26.9667 17.765ZM27.4997 17.297L26.6627 16.7497L26.6574 16.7579L27.4997 17.297ZM27.7467 16.387L28.5005 15.7299L26.861 13.8493L26.7477 16.3416L27.7467 16.387ZM28.1887 16.894L29.1849 16.9814L29.2221 16.5576L28.9425 16.2369L28.1887 16.894ZM27.8247 18.142L26.9633 17.634L26.9584 17.6423L26.9537 17.6507L27.8247 18.142ZM27.0187 18.922L27.475 19.8119L27.4835 19.8074L27.0187 18.922ZM29.0457 19V16.907H27.0457V19H29.0457ZM28.0457 15.907H27.7467V17.907H28.0457V15.907ZM28.7467 16.907V14.58H26.7467V16.907H28.7467ZM28.7467 14.58C28.7467 14.0258 28.6114 13.4195 28.1548 12.9629L26.7406 14.3771C26.7155 14.3521 26.7145 14.3365 26.7219 14.3592C26.731 14.3867 26.7467 14.4546 26.7467 14.58H28.7467ZM28.1548 12.9629C27.6947 12.5028 27.0804 12.371 26.5247 12.371V14.371C26.6564 14.371 26.7288 14.3872 26.7593 14.3971C26.7849 14.4054 26.7682 14.4047 26.7406 14.3771L28.1548 12.9629ZM26.5247 12.371C26.2956 12.371 26.0255 12.3756 25.7161 12.3844L25.7733 14.3836C26.0705 14.3751 26.3205 14.371 26.5247 14.371V12.371ZM25.7161 12.3844C25.4036 12.3933 25.0869 12.4067 24.7662 12.4245L24.8772 14.4215C25.1805 14.4046 25.4792 14.392 25.7733 14.3836L25.7161 12.3844ZM24.7931 12.4234C24.4789 12.4324 24.1913 12.446 23.9315 12.4645L24.0739 14.4595C24.2994 14.4434 24.5579 14.4309 24.8503 14.4226L24.7931 12.4234ZM25.0027 13.462V11.928H23.0027V13.462H25.0027ZM24.0893 12.9242C24.2814 12.9075 24.5007 12.8907 24.7475 12.8736L24.6099 10.8784C24.3541 10.896 24.1226 10.9138 23.9161 10.9318L24.0893 12.9242ZM24.7475 12.8736C24.9752 12.8579 25.2079 12.85 25.4457 12.85V10.85C25.1635 10.85 24.8848 10.8594 24.6099 10.8784L24.7475 12.8736ZM25.4779 12.8495C25.7374 12.8411 25.9779 12.837 26.1997 12.837V10.837C25.9535 10.837 25.6913 10.8416 25.4135 10.8505L25.4779 12.8495ZM26.1997 12.837C26.8496 12.837 27.3151 12.9234 27.6353 13.0515L28.3781 11.1945C27.745 10.9413 27.0058 10.837 26.1997 10.837V12.837ZM27.641 13.0538C27.9418 13.1719 28.1219 13.3342 28.2396 13.5318L29.9578 12.5082C29.5902 11.8912 29.0422 11.4554 28.3724 11.1922L27.641 13.0538ZM28.2477 13.5451C28.3715 13.7459 28.4757 14.0787 28.4757 14.619H30.4757C30.4757 13.842 30.3285 13.1088 29.9497 12.4949L28.2477 13.5451ZM28.4757 14.619V19H30.4757V14.619H28.4757ZM29.4757 18H28.0457V20H29.4757V18ZM25.7707 18.182C25.3783 18.182 25.0766 18.1125 24.8416 18.0028L23.9958 19.8152C24.5408 20.0695 25.1404 20.182 25.7707 20.182V18.182ZM24.8494 18.0065C24.627 17.9004 24.4743 17.7621 24.3636 17.5893L22.6798 18.6687C23.0024 19.1719 23.4477 19.5536 23.988 19.8115L24.8494 18.0065ZM24.3734 17.6049C24.2803 17.4536 24.2097 17.2361 24.2097 16.907H22.2097C22.2097 17.5313 22.3471 18.1284 22.67 18.6531L24.3734 17.6049ZM24.2097 16.907C24.2097 16.5494 24.2941 16.3544 24.3817 16.2397L22.7917 15.0263C22.3766 15.5703 22.2097 16.2246 22.2097 16.907H24.2097ZM24.3716 16.2526C24.4977 16.0929 24.6909 15.9453 25.0032 15.8333L24.3282 13.9507C23.7218 14.1681 23.1957 14.5144 22.8018 15.0134L24.3716 16.2526ZM24.9976 15.8353C25.3355 15.7164 25.7649 15.645 26.3037 15.645V13.645C25.5945 13.645 24.9319 13.7382 24.3338 13.9487L24.9976 15.8353ZM26.3037 15.645H27.9417V13.645H26.3037V15.645ZM26.9417 14.645V15.724H28.9417V14.645H26.9417ZM27.9417 14.724H26.2777V16.724H27.9417V14.724ZM26.2777 14.724C25.7012 14.724 25.1049 14.8697 24.6374 15.3012L25.994 16.7708C25.9772 16.7863 26.0222 16.724 26.2777 16.724V14.724ZM24.6386 15.3001C24.1965 15.7068 23.9907 16.2435 23.9907 16.816H25.9907C25.9907 16.7922 25.9927 16.7775 25.994 16.7703C25.9953 16.7633 25.9962 16.7623 25.995 16.7651C25.9938 16.7681 25.9919 16.7716 25.9898 16.7745C25.9879 16.7772 25.9881 16.7762 25.9928 16.7719L24.6386 15.3001ZM23.9907 16.816C23.9907 17.3885 24.1965 17.9252 24.6386 18.3319L25.9928 16.8601C25.9881 16.8558 25.9879 16.8548 25.9898 16.8575C25.9919 16.8604 25.9938 16.8639 25.995 16.8669C25.9962 16.8697 25.9953 16.8687 25.994 16.8617C25.9927 16.8545 25.9907 16.8398 25.9907 16.816H23.9907ZM24.6531 18.345C25.1209 18.7588 25.7112 18.895 26.2777 18.895V16.895C26.0122 16.895 25.9611 16.8318 25.9783 16.847L24.6531 18.345ZM26.2777 18.895C26.6458 18.895 27.0081 18.8311 27.3513 18.6881L26.5821 16.8419C26.5093 16.8723 26.4122 16.895 26.2777 16.895V18.895ZM27.3694 18.6803C27.7822 18.4987 28.1067 18.2037 28.342 17.8361L26.6574 16.7579C26.6154 16.8237 26.5846 16.8406 26.564 16.8497L27.3694 18.6803ZM28.3367 17.8442C28.6145 17.4193 28.7234 16.9217 28.7457 16.4324L26.7477 16.3416C26.7353 16.6149 26.6795 16.7241 26.6627 16.7498L28.3367 17.8442ZM26.9929 17.0441L27.4349 17.5511L28.9425 16.2369L28.5005 15.7299L26.9929 17.0441ZM27.1925 16.8066C27.1589 17.1901 27.0697 17.4537 26.9633 17.634L28.6861 18.65C28.9784 18.1543 29.1318 17.5859 29.1849 16.9814L27.1925 16.8066ZM26.9537 17.6507C26.8586 17.8194 26.7316 17.9433 26.5539 18.0366L27.4835 19.8074C27.9991 19.5367 28.4095 19.1406 28.6957 18.6333L26.9537 17.6507ZM26.5624 18.0322C26.4016 18.1147 26.1521 18.182 25.7707 18.182V20.182C26.3773 20.182 26.9598 20.076 27.475 19.8118L26.5624 18.0322ZM32.8673 18.844L32.4827 19.7671L32.4941 19.7719L32.5057 19.7764L32.8673 18.844ZM31.9313 17.986L31.0406 18.4408L31.0447 18.4486L31.9313 17.986ZM31.6193 16.348L30.6193 16.346V16.348H31.6193ZM31.6323 9.952V8.952H30.6343L30.6323 9.94997L31.6323 9.952ZM33.3223 9.952L34.3223 9.954L34.3243 8.952H33.3223V9.952ZM33.3093 16.465L32.3093 16.463V16.465H33.3093ZM33.5823 17.271L32.8589 17.9615L32.875 17.9783L32.8918 17.9944L33.5823 17.271ZM35.4933 17.544H36.4933V16.544H35.4933V17.544ZM35.4933 19.091V20.091H36.4933V19.091H35.4933ZM30.5013 13.267H29.5013V14.267H30.5013V13.267ZM30.5013 11.941V10.941H29.5013V11.941H30.5013ZM35.4933 11.941H36.4933V10.941H35.4933V11.941ZM35.4933 13.267V14.267H36.4933V13.267H35.4933ZM34.4793 18.091C33.9044 18.091 33.5002 18.0169 33.2288 17.9116L32.5057 19.7764C33.0837 20.0004 33.7542 20.091 34.4793 20.091V18.091ZM33.2519 17.9209C33.0514 17.8374 32.9173 17.7141 32.8179 17.5234L31.0447 18.4486C31.3612 19.0553 31.8511 19.5039 32.4827 19.7671L33.2519 17.9209ZM32.8219 17.5312C32.7126 17.3173 32.6193 16.9467 32.6193 16.348H30.6193C30.6193 17.1187 30.7339 17.84 31.0407 18.4408L32.8219 17.5312ZM32.6193 16.35L32.6323 9.95403L30.6323 9.94997L30.6193 16.346L32.6193 16.35ZM31.6323 10.952H33.3223V8.952H31.6323V10.952ZM32.3223 9.95L32.3093 16.463L34.3093 16.467L34.3223 9.954L32.3223 9.95ZM32.3093 16.465C32.3093 16.9853 32.449 17.532 32.8589 17.9615L34.3056 16.5805C34.3129 16.5881 34.3186 16.596 34.3225 16.6025C34.3262 16.6088 34.3264 16.6107 34.3247 16.6057C34.321 16.5947 34.3093 16.5526 34.3093 16.465H32.3093ZM32.8918 17.9944C33.3212 18.4043 33.868 18.544 34.3883 18.544V16.544C34.3007 16.544 34.2586 16.5323 34.2476 16.5286C34.2426 16.5269 34.2445 16.5271 34.2508 16.5308C34.2573 16.5347 34.2652 16.5404 34.2728 16.5476L32.8918 17.9944ZM34.3883 18.544H35.4933V16.544H34.3883V18.544ZM34.4933 17.544V19.091H36.4933V17.544H34.4933ZM35.4933 18.091H34.4793V20.091H35.4933V18.091ZM31.5013 13.267V11.941H29.5013V13.267H31.5013ZM30.5013 12.941H35.4933V10.941H30.5013V12.941ZM34.4933 11.941V13.267H36.4933V11.941H34.4933ZM35.4933 12.267H30.5013V14.267H35.4933V12.267ZM41.5446 19.052H40.5446V20.052H41.5446V19.052ZM41.5446 17.336V16.336H40.5446V17.336H41.5446ZM44.8206 17.115L45.181 18.0479L45.192 18.0435L44.8206 17.115ZM46.4196 15.49L45.4867 15.1296L45.4824 15.1413L46.4196 15.49ZM46.4196 12.955L45.4798 13.2967L45.4845 13.3098L45.4896 13.3227L46.4196 12.955ZM44.8206 11.369L44.4788 12.3088L44.4856 12.3112L44.8206 11.369ZM41.5446 11.161H40.5446V12.161H41.5446V11.161ZM41.5446 9.445V8.445H40.5446V9.445H41.5446ZM47.2386 10.862L46.5174 11.5549L46.5244 11.5619L47.2386 10.862ZM48.1876 12.357L47.2495 12.7034L47.2527 12.7121L47.2561 12.7208L48.1876 12.357ZM48.1876 16.062L47.256 15.6981L47.2512 15.7109L48.1876 16.062ZM47.2386 17.57L46.5108 16.8842L46.5108 16.8842L47.2386 17.57ZM45.6396 18.649L46.026 19.5713L45.6396 18.649ZM39.9586 19.052H38.9586V20.052H39.9586V19.052ZM39.9586 9.445V8.445H38.9586V9.445H39.9586ZM41.8046 9.445H42.8046V8.445H41.8046V9.445ZM41.8046 19.052V20.052H42.8046V19.052H41.8046ZM42.5446 19.052V17.336H40.5446V19.052H42.5446ZM41.5446 18.336H43.5076V16.336H41.5446V18.336ZM43.5076 18.336C44.0998 18.336 44.6635 18.2477 45.181 18.0478L44.4602 16.1822C44.215 16.2769 43.9033 16.336 43.5076 16.336V18.336ZM45.192 18.0435C45.7011 17.8398 46.1519 17.5478 46.5268 17.1608L45.0903 15.7692C44.928 15.9368 44.7201 16.0782 44.4492 16.1865L45.192 18.0435ZM46.5268 17.1608C46.8946 16.7812 47.1714 16.337 47.3568 15.8387L45.4824 15.1413C45.3904 15.3883 45.2599 15.5942 45.0903 15.7692L46.5268 17.1608ZM47.3524 15.8504C47.5493 15.3408 47.6406 14.7964 47.6406 14.229H45.6406C45.6406 14.5802 45.5845 14.8766 45.4868 15.1296L47.3524 15.8504ZM47.6406 14.229C47.6406 13.6498 47.551 13.097 47.3495 12.5873L45.4896 13.3227C45.5828 13.5584 45.6406 13.8549 45.6406 14.229H47.6406ZM47.3594 12.6133C47.1742 12.1041 46.8946 11.6518 46.5157 11.2729L45.1015 12.6871C45.2599 12.8455 45.3876 13.0432 45.4798 13.2967L47.3594 12.6133ZM46.5157 11.2729C46.1329 10.8901 45.6728 10.6107 45.1556 10.4268L44.4856 12.3112C44.7483 12.4046 44.947 12.5326 45.1015 12.6871L46.5157 11.2729ZM45.1623 10.4292C44.6505 10.2431 44.0936 10.161 43.5076 10.161V12.161C43.9096 12.161 44.2279 12.2176 44.4788 12.3088L45.1623 10.4292ZM43.5076 10.161H41.5446V12.161H43.5076V10.161ZM42.5446 11.161V9.445H40.5446V11.161H42.5446ZM41.5446 10.445H43.3906V8.445H41.5446V10.445ZM43.3906 10.445C44.1533 10.445 44.7743 10.557 45.2747 10.7531L46.0044 8.89094C45.2222 8.58438 44.3439 8.445 43.3906 8.445V10.445ZM45.2747 10.7531C45.7982 10.9582 46.2047 11.2293 46.5175 11.5548L47.9597 10.1692C47.4231 9.61074 46.7636 9.18846 46.0044 8.89094L45.2747 10.7531ZM46.5244 11.5619C46.8514 11.8956 47.0909 12.2738 47.2495 12.7034L49.1257 12.0106C48.8683 11.3136 48.4751 10.6951 47.9528 10.1621L46.5244 11.5619ZM47.2561 12.7208C47.4273 13.1591 47.5126 13.612 47.5126 14.086H49.5126C49.5126 13.364 49.3812 12.6643 49.119 11.9931L47.2561 12.7208ZM47.5126 14.086V14.372H49.5126V14.086H47.5126ZM47.5126 14.372C47.5126 14.8144 47.4294 15.2546 47.2561 15.6981L49.119 16.4259C49.3791 15.7601 49.5126 15.0736 49.5126 14.372H47.5126ZM47.2512 15.7109C47.092 16.1356 46.8486 16.5257 46.5108 16.8842L47.9664 18.2558C48.4779 17.713 48.8672 17.0977 49.1239 16.4131L47.2512 15.7109ZM46.5108 16.8842C46.1933 17.2212 45.7813 17.5054 45.2532 17.7267L46.026 19.5713C46.7805 19.2552 47.4345 18.8202 47.9664 18.2558L46.5108 16.8842ZM45.2532 17.7267C44.7592 17.9336 44.146 18.052 43.3906 18.052V20.052C44.3511 20.052 45.2372 19.9017 46.026 19.5713L45.2532 17.7267ZM43.3906 18.052H41.5446V20.052H43.3906V18.052ZM40.9586 19.052V9.445H38.9586V19.052H40.9586ZM39.9586 10.445H41.8046V8.445H39.9586V10.445ZM40.8046 9.445V19.052H42.8046V9.445H40.8046ZM41.8046 18.052H39.9586V20.052H41.8046V18.052ZM54.2996 19H53.2996V20H54.2996V19ZM54.2996 16.907H55.2996V15.907H54.2996V16.907ZM54.0006 16.907H53.0006V17.907H54.0006V16.907ZM51.9986 13.384L52.0272 14.3836L52.0272 14.3836L51.9986 13.384ZM51.0756 13.423L51.1042 14.4226L51.1176 14.4222L51.1311 14.4215L51.0756 13.423ZM50.2566 13.462H49.2566V14.536L50.3279 14.4595L50.2566 13.462ZM50.2566 11.928L50.17 10.9318L49.2566 11.0112V11.928H50.2566ZM50.9326 11.876L50.8638 10.8784L50.8638 10.8784L50.9326 11.876ZM51.6996 11.85V12.85H51.7157L51.7318 12.8495L51.6996 11.85ZM54.2606 12.123L53.8892 13.0515L53.895 13.0538L54.2606 12.123ZM55.3526 13.02L54.4935 13.5318L54.4975 13.5385L54.5016 13.5451L55.3526 13.02ZM55.7296 19V20H56.7296V19H55.7296ZM50.6726 18.909L50.2419 19.8115L50.2497 19.8152L50.6726 18.909ZM49.7756 18.129L48.9239 18.6531L48.9288 18.6609L48.9337 18.6687L49.7756 18.129ZM49.8406 15.633L49.0557 15.0134L49.0506 15.0198L49.0457 15.0263L49.8406 15.633ZM50.9196 14.892L50.5877 13.9487L50.5821 13.9507L50.9196 14.892ZM54.1956 14.645H55.1956V13.645H54.1956V14.645ZM54.1956 15.724V16.724H55.1956V15.724H54.1956ZM51.5696 16.036L52.2467 16.7719L52.2479 16.7708L51.5696 16.036ZM51.5696 17.596L50.8925 18.3319L50.8997 18.3385L50.907 18.345L51.5696 17.596ZM53.2206 17.765L53.6052 18.6881L53.6143 18.6843L53.6233 18.6803L53.2206 17.765ZM53.7536 17.297L52.9166 16.7497L52.9113 16.7579L53.7536 17.297ZM54.0006 16.387L54.7544 15.7299L53.1149 13.8493L53.0016 16.3416L54.0006 16.387ZM54.4426 16.894L55.4388 16.9814L55.476 16.5576L55.1964 16.2369L54.4426 16.894ZM54.0786 18.142L53.2172 17.634L53.2124 17.6423L53.2076 17.6507L54.0786 18.142ZM53.2726 18.922L53.7289 19.8119L53.7374 19.8074L53.2726 18.922ZM55.2996 19V16.907H53.2996V19H55.2996ZM54.2996 15.907H54.0006V17.907H54.2996V15.907ZM55.0006 16.907V14.58H53.0006V16.907H55.0006ZM55.0006 14.58C55.0006 14.0258 54.8653 13.4195 54.4087 12.9629L52.9945 14.3771C52.9694 14.3521 52.9684 14.3365 52.9758 14.3592C52.9849 14.3867 53.0006 14.4546 53.0006 14.58H55.0006ZM54.4087 12.9629C53.9486 12.5028 53.3343 12.371 52.7786 12.371V14.371C52.9103 14.371 52.9827 14.3872 53.0132 14.3971C53.0389 14.4054 53.0221 14.4047 52.9945 14.3771L54.4087 12.9629ZM52.7786 12.371C52.5495 12.371 52.2795 12.3756 51.97 12.3844L52.0272 14.3836C52.3244 14.3751 52.5744 14.371 52.7786 14.371V12.371ZM51.97 12.3844C51.6575 12.3933 51.3408 12.4067 51.0201 12.4245L51.1311 14.4215C51.4344 14.4046 51.7331 14.392 52.0272 14.3836L51.97 12.3844ZM51.047 12.4234C50.7328 12.4324 50.4452 12.446 50.1854 12.4645L50.3279 14.4595C50.5533 14.4434 50.8118 14.4309 51.1042 14.4226L51.047 12.4234ZM51.2566 13.462V11.928H49.2566V13.462H51.2566ZM50.3432 12.9242C50.5353 12.9075 50.7546 12.8907 51.0014 12.8736L50.8638 10.8784C50.608 10.896 50.3765 10.9138 50.17 10.9318L50.3432 12.9242ZM51.0014 12.8736C51.2291 12.8579 51.4618 12.85 51.6996 12.85V10.85C51.4174 10.85 51.1388 10.8594 50.8638 10.8784L51.0014 12.8736ZM51.7318 12.8495C51.9913 12.8411 52.2318 12.837 52.4536 12.837V10.837C52.2074 10.837 51.9452 10.8416 51.6674 10.8505L51.7318 12.8495ZM52.4536 12.837C53.1035 12.837 53.569 12.9234 53.8892 13.0515L54.632 11.1945C53.9989 10.9413 53.2597 10.837 52.4536 10.837V12.837ZM53.895 13.0538C54.1957 13.1719 54.3758 13.3342 54.4935 13.5318L56.2117 12.5082C55.8441 11.8912 55.2962 11.4554 54.6263 11.1922L53.895 13.0538ZM54.5016 13.5451C54.6254 13.7459 54.7296 14.0787 54.7296 14.619H56.7296C56.7296 13.842 56.5824 13.1088 56.2036 12.4949L54.5016 13.5451ZM54.7296 14.619V19H56.7296V14.619H54.7296ZM55.7296 18H54.2996V20H55.7296V18ZM52.0246 18.182C51.6322 18.182 51.3305 18.1125 51.0955 18.0028L50.2497 19.8152C50.7947 20.0695 51.3943 20.182 52.0246 20.182V18.182ZM51.1033 18.0065C50.8809 17.9004 50.7282 17.7621 50.6175 17.5893L48.9337 18.6687C49.2563 19.1719 49.7016 19.5536 50.2419 19.8115L51.1033 18.0065ZM50.6273 17.6049C50.5342 17.4536 50.4636 17.2361 50.4636 16.907H48.4636C48.4636 17.5313 48.601 18.1284 48.9239 18.6531L50.6273 17.6049ZM50.4636 16.907C50.4636 16.5494 50.548 16.3544 50.6356 16.2397L49.0457 15.0263C48.6305 15.5703 48.4636 16.2246 48.4636 16.907H50.4636ZM50.6255 16.2526C50.7516 16.0929 50.9448 15.9453 51.2571 15.8333L50.5821 13.9507C49.9757 14.1681 49.4496 14.5144 49.0557 15.0134L50.6255 16.2526ZM51.2515 15.8353C51.5894 15.7164 52.0188 15.645 52.5576 15.645V13.645C51.8484 13.645 51.1858 13.7382 50.5877 13.9487L51.2515 15.8353ZM52.5576 15.645H54.1956V13.645H52.5576V15.645ZM53.1956 14.645V15.724H55.1956V14.645H53.1956ZM54.1956 14.724H52.5316V16.724H54.1956V14.724ZM52.5316 14.724C51.9552 14.724 51.3588 14.8697 50.8913 15.3012L52.2479 16.7708C52.2311 16.7863 52.2761 16.724 52.5316 16.724V14.724ZM50.8925 15.3001C50.4504 15.7068 50.2446 16.2435 50.2446 16.816H52.2446C52.2446 16.7922 52.2466 16.7775 52.248 16.7703C52.2492 16.7633 52.2501 16.7623 52.2489 16.7651C52.2477 16.7681 52.2458 16.7716 52.2437 16.7745C52.2418 16.7772 52.242 16.7762 52.2467 16.7719L50.8925 15.3001ZM50.2446 16.816C50.2446 17.3885 50.4504 17.9252 50.8925 18.3319L52.2467 16.8601C52.242 16.8558 52.2418 16.8548 52.2437 16.8575C52.2458 16.8604 52.2477 16.8639 52.2489 16.8669C52.2501 16.8697 52.2492 16.8687 52.248 16.8617C52.2466 16.8545 52.2446 16.8398 52.2446 16.816H50.2446ZM50.907 18.345C51.3749 18.7588 51.9651 18.895 52.5316 18.895V16.895C52.2661 16.895 52.215 16.8318 52.2322 16.847L50.907 18.345ZM52.5316 18.895C52.8997 18.895 53.262 18.8311 53.6052 18.6881L52.836 16.8419C52.7632 16.8723 52.6662 16.895 52.5316 16.895V18.895ZM53.6233 18.6803C54.0361 18.4987 54.3606 18.2037 54.5959 17.8361L52.9113 16.7579C52.8693 16.8237 52.8385 16.8406 52.8179 16.8497L53.6233 18.6803ZM54.5906 17.8442C54.8684 17.4193 54.9773 16.9217 54.9996 16.4324L53.0016 16.3416C52.9892 16.6149 52.9334 16.7241 52.9166 16.7498L54.5906 17.8442ZM53.2468 17.0441L53.6888 17.5511L55.1964 16.2369L54.7544 15.7299L53.2468 17.0441ZM53.4464 16.8066C53.4128 17.1901 53.3236 17.4537 53.2172 17.634L54.94 18.65C55.2323 18.1543 55.3858 17.5859 55.4388 16.9814L53.4464 16.8066ZM53.2076 17.6507C53.1125 17.8194 52.9856 17.9433 52.8078 18.0366L53.7374 19.8074C54.253 19.5367 54.6634 19.1406 54.9496 18.6333L53.2076 17.6507ZM52.8163 18.0322C52.6555 18.1147 52.406 18.182 52.0246 18.182V20.182C52.6312 20.182 53.2137 20.076 53.7289 19.8118L52.8163 18.0322ZM57.8342 19H56.8342V20H57.8342V19ZM58.4972 9.991L59.1504 10.7482L59.1516 10.7472L58.4972 9.991ZM61.3702 9.406H62.3702V8.406H61.3702V9.406ZM61.3702 10.797V11.797H62.3702V10.797H61.3702ZM59.7322 11.018L60.4393 11.7251L60.4393 11.7251L59.7322 11.018ZM59.5242 19V20H60.5242V19H59.5242ZM56.9502 13.384H55.9502V14.384H56.9502V13.384ZM56.9502 12.058V11.058H55.9502V12.058H56.9502ZM61.4872 12.058H62.4872V11.058H61.4872V12.058ZM61.4872 13.384V14.384H62.4872V13.384H61.4872ZM58.8342 19V11.772H56.8342V19H58.8342ZM58.8342 11.772C58.8342 11.1411 59.0032 10.8751 59.1504 10.7482L57.844 9.23384C57.1071 9.86952 56.8342 10.7909 56.8342 11.772H58.8342ZM59.1516 10.7472C59.3518 10.5739 59.7413 10.406 60.4862 10.406V8.406C59.4804 8.406 58.5439 8.62808 57.8428 9.23483L59.1516 10.7472ZM60.4862 10.406H61.3702V8.406H60.4862V10.406ZM60.3702 9.406V10.797H62.3702V9.406H60.3702ZM61.3702 9.797H60.3562V11.797H61.3702V9.797ZM60.3562 9.797C59.9025 9.797 59.4099 9.92603 59.0251 10.3109L60.4393 11.7251C60.4219 11.7425 60.4024 11.7579 60.3822 11.7705C60.3622 11.7829 60.3448 11.7905 60.3325 11.7949C60.3089 11.8033 60.3117 11.797 60.3562 11.797V9.797ZM59.0251 10.3109C58.6439 10.6921 58.5242 11.1802 58.5242 11.616H60.5242C60.5242 11.5729 60.5301 11.5728 60.5207 11.6C60.5096 11.6318 60.4846 11.6798 60.4393 11.7251L59.0251 10.3109ZM58.5242 11.616V19H60.5242V11.616H58.5242ZM59.5242 18H57.8342V20H59.5242V18ZM57.9502 13.384V12.058H55.9502V13.384H57.9502ZM56.9502 13.058H61.4872V11.058H56.9502V13.058ZM60.4872 12.058V13.384H62.4872V12.058H60.4872ZM61.4872 12.384H56.9502V14.384H61.4872V12.384ZM64.1993 18.844L63.8147 19.7671L63.8262 19.7719L63.8378 19.7764L64.1993 18.844ZM63.2633 17.986L62.3727 18.4408L62.3767 18.4486L63.2633 17.986ZM62.9513 16.348L61.9513 16.346V16.348H62.9513ZM62.9643 9.952V8.952H61.9663L61.9643 9.94997L62.9643 9.952ZM64.6543 9.952L65.6543 9.954L65.6563 8.952H64.6543V9.952ZM64.6413 16.465L63.6413 16.463V16.465H64.6413ZM64.9143 17.271L64.191 17.9615L64.207 17.9783L64.2238 17.9944L64.9143 17.271ZM66.8253 17.544H67.8253V16.544H66.8253V17.544ZM66.8253 19.091V20.091H67.8253V19.091H66.8253ZM61.8333 13.267H60.8333V14.267H61.8333V13.267ZM61.8333 11.941V10.941H60.8333V11.941H61.8333ZM66.8253 11.941H67.8253V10.941H66.8253V11.941ZM66.8253 13.267V14.267H67.8253V13.267H66.8253ZM65.8113 18.091C65.2364 18.091 64.8323 18.0169 64.5608 17.9116L63.8378 19.7764C64.4157 20.0004 65.0862 20.091 65.8113 20.091V18.091ZM64.5839 17.9209C64.3835 17.8374 64.2494 17.7141 64.1499 17.5234L62.3767 18.4486C62.6933 19.0553 63.1832 19.5039 63.8147 19.7671L64.5839 17.9209ZM64.1539 17.5312C64.0447 17.3173 63.9513 16.9467 63.9513 16.348H61.9513C61.9513 17.1187 62.0659 17.84 62.3727 18.4408L64.1539 17.5312ZM63.9513 16.35L63.9643 9.95403L61.9643 9.94997L61.9513 16.346L63.9513 16.35ZM62.9643 10.952H64.6543V8.952H62.9643V10.952ZM63.6543 9.95L63.6413 16.463L65.6413 16.467L65.6543 9.954L63.6543 9.95ZM63.6413 16.465C63.6413 16.9853 63.781 17.532 64.191 17.9615L65.6377 16.5805C65.6449 16.5881 65.6506 16.596 65.6545 16.6025C65.6582 16.6088 65.6584 16.6107 65.6567 16.6057C65.653 16.5947 65.6413 16.5526 65.6413 16.465H63.6413ZM64.2238 17.9944C64.6533 18.4043 65.2 18.544 65.7203 18.544V16.544C65.6327 16.544 65.5906 16.5323 65.5796 16.5286C65.5746 16.5269 65.5766 16.5271 65.5828 16.5308C65.5893 16.5347 65.5972 16.5404 65.6048 16.5476L64.2238 17.9944ZM65.7203 18.544H66.8253V16.544H65.7203V18.544ZM65.8253 17.544V19.091H67.8253V17.544H65.8253ZM66.8253 18.091H65.8113V20.091H66.8253V18.091ZM62.8333 13.267V11.941H60.8333V13.267H62.8333ZM61.8333 12.941H66.8253V10.941H61.8333V12.941ZM65.8253 11.941V13.267H67.8253V11.941H65.8253ZM66.8253 12.267H61.8333V14.267H66.8253V12.267ZM72.5936 19H71.5936V20H72.5936V19ZM72.5936 16.907H73.5936V15.907H72.5936V16.907ZM72.2946 16.907H71.2946V17.907H72.2946V16.907ZM70.2926 13.384L70.3211 14.3836L70.3211 14.3836L70.2926 13.384ZM69.3696 13.423L69.3981 14.4226L69.4116 14.4222L69.425 14.4215L69.3696 13.423ZM68.5506 13.462H67.5506V14.536L68.6218 14.4595L68.5506 13.462ZM68.5506 11.928L68.4639 10.9318L67.5506 11.0112V11.928H68.5506ZM69.2266 11.876L69.1577 10.8784L69.1577 10.8784L69.2266 11.876ZM69.9936 11.85V12.85H70.0097L70.0258 12.8495L69.9936 11.85ZM72.5546 12.123L72.1832 13.0515L72.1889 13.0538L72.5546 12.123ZM73.6466 13.02L72.7874 13.5318L72.7914 13.5385L72.7955 13.5451L73.6466 13.02ZM74.0236 19V20H75.0236V19H74.0236ZM68.9666 18.909L68.5358 19.8115L68.5437 19.8152L68.9666 18.909ZM68.0696 18.129L67.2179 18.6531L67.2227 18.6609L67.2277 18.6687L68.0696 18.129ZM68.1346 15.633L67.3497 15.0134L67.3446 15.0198L67.3396 15.0263L68.1346 15.633ZM69.2136 14.892L68.8816 13.9487L68.8761 13.9507L69.2136 14.892ZM72.4896 14.645H73.4896V13.645H72.4896V14.645ZM72.4896 15.724V16.724H73.4896V15.724H72.4896ZM69.8636 16.036L70.5406 16.7719L70.5418 16.7708L69.8636 16.036ZM69.8636 17.596L69.1865 18.3319L69.1937 18.3385L69.201 18.345L69.8636 17.596ZM71.5146 17.765L71.8992 18.6881L71.9083 18.6843L71.9173 18.6803L71.5146 17.765ZM72.0476 17.297L71.2105 16.7497L71.2053 16.7579L72.0476 17.297ZM72.2946 16.387L73.0483 15.7299L71.4089 13.8493L71.2956 16.3416L72.2946 16.387ZM72.7366 16.894L73.7327 16.9814L73.7699 16.5576L73.4903 16.2369L72.7366 16.894ZM72.3726 18.142L71.5112 17.634L71.5063 17.6423L71.5016 17.6507L72.3726 18.142ZM71.5666 18.922L72.0229 19.8119L72.0314 19.8074L71.5666 18.922ZM73.5936 19V16.907H71.5936V19H73.5936ZM72.5936 15.907H72.2946V17.907H72.5936V15.907ZM73.2946 16.907V14.58H71.2946V16.907H73.2946ZM73.2946 14.58C73.2946 14.0258 73.1593 13.4195 72.7027 12.9629L71.2884 14.3771C71.2634 14.3521 71.2623 14.3365 71.2698 14.3592C71.2788 14.3867 71.2946 14.4546 71.2946 14.58H73.2946ZM72.7027 12.9629C72.2426 12.5028 71.6283 12.371 71.0726 12.371V14.371C71.2043 14.371 71.2766 14.3872 71.3071 14.3971C71.3328 14.4054 71.316 14.4047 71.2884 14.3771L72.7027 12.9629ZM71.0726 12.371C70.8434 12.371 70.5734 12.3756 70.264 12.3844L70.3211 14.3836C70.6184 14.3751 70.8683 14.371 71.0726 14.371V12.371ZM70.264 12.3844C69.9514 12.3933 69.6348 12.4067 69.3141 12.4245L69.425 14.4215C69.7283 14.4046 70.027 14.392 70.3211 14.3836L70.264 12.3844ZM69.341 12.4234C69.0267 12.4324 68.7391 12.446 68.4793 12.4645L68.6218 14.4595C68.8473 14.4434 69.1057 14.4309 69.3981 14.4226L69.341 12.4234ZM69.5506 13.462V11.928H67.5506V13.462H69.5506ZM68.6372 12.9242C68.8293 12.9075 69.0485 12.8907 69.2954 12.8736L69.1577 10.8784C68.9019 10.896 68.6705 10.9138 68.4639 10.9318L68.6372 12.9242ZM69.2954 12.8736C69.5231 12.8579 69.7558 12.85 69.9936 12.85V10.85C69.7113 10.85 69.4327 10.8594 69.1577 10.8784L69.2954 12.8736ZM70.0258 12.8495C70.2853 12.8411 70.5257 12.837 70.7476 12.837V10.837C70.5014 10.837 70.2392 10.8416 69.9613 10.8505L70.0258 12.8495ZM70.7476 12.837C71.3974 12.837 71.8629 12.9234 72.1832 13.0515L72.9259 11.1945C72.2928 10.9413 71.5537 10.837 70.7476 10.837V12.837ZM72.1889 13.0538C72.4897 13.1719 72.6697 13.3342 72.7874 13.5318L74.5057 12.5082C74.1381 11.8912 73.5901 11.4554 72.9202 11.1922L72.1889 13.0538ZM72.7955 13.5451C72.9194 13.7459 73.0236 14.0787 73.0236 14.619H75.0236C75.0236 13.842 74.8764 13.1088 74.4976 12.4949L72.7955 13.5451ZM73.0236 14.619V19H75.0236V14.619H73.0236ZM74.0236 18H72.5936V20H74.0236V18ZM70.3186 18.182C69.9262 18.182 69.6244 18.1125 69.3894 18.0028L68.5437 19.8152C69.0887 20.0695 69.6883 20.182 70.3186 20.182V18.182ZM69.3973 18.0065C69.1749 17.9004 69.0221 17.7621 68.9114 17.5893L67.2277 18.6687C67.5503 19.1719 67.9955 19.5536 68.5358 19.8115L69.3973 18.0065ZM68.9212 17.6049C68.8281 17.4536 68.7576 17.2361 68.7576 16.907H66.7576C66.7576 17.5313 66.895 18.1284 67.2179 18.6531L68.9212 17.6049ZM68.7576 16.907C68.7576 16.5494 68.842 16.3544 68.9295 16.2397L67.3396 15.0263C66.9245 15.5703 66.7576 16.2246 66.7576 16.907H68.7576ZM68.9194 16.2526C69.0455 16.0929 69.2388 15.9453 69.551 15.8333L68.8761 13.9507C68.2697 14.1681 67.7436 14.5144 67.3497 15.0134L68.9194 16.2526ZM69.5455 15.8353C69.8834 15.7164 70.3127 15.645 70.8516 15.645V13.645C70.1424 13.645 69.4797 13.7382 68.8816 13.9487L69.5455 15.8353ZM70.8516 15.645H72.4896V13.645H70.8516V15.645ZM71.4896 14.645V15.724H73.4896V14.645H71.4896ZM72.4896 14.724H70.8256V16.724H72.4896V14.724ZM70.8256 14.724C70.2491 14.724 69.6528 14.8697 69.1853 15.3012L70.5418 16.7708C70.525 16.7863 70.57 16.724 70.8256 16.724V14.724ZM69.1865 15.3001C68.7444 15.7068 68.5386 16.2435 68.5386 16.816H70.5386C70.5386 16.7922 70.5406 16.7775 70.5419 16.7703C70.5432 16.7633 70.5441 16.7623 70.5429 16.7651C70.5416 16.7681 70.5397 16.7716 70.5377 16.7745C70.5358 16.7772 70.5359 16.7762 70.5406 16.7719L69.1865 15.3001ZM68.5386 16.816C68.5386 17.3885 68.7444 17.9252 69.1865 18.3319L70.5406 16.8601C70.5359 16.8558 70.5358 16.8548 70.5377 16.8575C70.5397 16.8604 70.5416 16.8639 70.5429 16.8669C70.5441 16.8697 70.5432 16.8687 70.5419 16.8617C70.5406 16.8545 70.5386 16.8398 70.5386 16.816H68.5386ZM69.201 18.345C69.6688 18.7588 70.259 18.895 70.8256 18.895V16.895C70.5601 16.895 70.509 16.8318 70.5261 16.847L69.201 18.345ZM70.8256 18.895C71.1937 18.895 71.556 18.8311 71.8992 18.6881L71.1299 16.8419C71.0571 16.8723 70.9601 16.895 70.8256 16.895V18.895ZM71.9173 18.6803C72.33 18.4987 72.6545 18.2037 72.8898 17.8361L71.2053 16.7579C71.1632 16.8237 71.1324 16.8406 71.1118 16.8497L71.9173 18.6803ZM72.8845 17.8442C73.1624 17.4193 73.2713 16.9217 73.2935 16.4324L71.2956 16.3416C71.2832 16.6149 71.2274 16.7241 71.2106 16.7498L72.8845 17.8442ZM71.5408 17.0441L71.9828 17.5511L73.4903 16.2369L73.0483 15.7299L71.5408 17.0441ZM71.7404 16.8066C71.7067 17.1901 71.6175 17.4537 71.5112 17.634L73.2339 18.65C73.5262 18.1543 73.6797 17.5859 73.7327 16.9814L71.7404 16.8066ZM71.5016 17.6507C71.4064 17.8194 71.2795 17.9433 71.1017 18.0366L72.0314 19.8074C72.5469 19.5367 72.9574 19.1406 73.2435 18.6333L71.5016 17.6507ZM71.1102 18.0322C70.9494 18.1147 70.6999 18.182 70.3186 18.182V20.182C70.9252 20.182 71.5077 20.076 72.0229 19.8118L71.1102 18.0322ZM75.9591 19H74.9591V20H75.9591V19ZM75.9591 11.941V10.941H74.9591V11.941H75.9591ZM77.3891 11.941H78.3891V10.941H77.3891V11.941ZM77.3891 14.931V15.931H78.3891V14.931H77.3891ZM77.3501 14.931H76.3501V15.931H77.3501V14.931ZM78.0001 12.63L78.7684 13.2702L78.7684 13.2702L78.0001 12.63ZM80.1711 11.85H81.1711V10.85H80.1711V11.85ZM80.1711 13.423V14.423H81.1711V13.423H80.1711ZM78.2601 13.917L78.9577 14.6335L78.958 14.6332L78.2601 13.917ZM77.7661 19V20H78.7661V19H77.7661ZM76.9591 19V11.941H74.9591V19H76.9591ZM75.9591 12.941H77.3891V10.941H75.9591V12.941ZM76.3891 11.941V14.931H78.3891V11.941H76.3891ZM77.3891 13.931H77.3501V15.931H77.3891V13.931ZM78.3501 14.931C78.3501 14.0387 78.5436 13.5398 78.7684 13.2702L77.2319 11.9898C76.59 12.7602 76.3501 13.7953 76.3501 14.931H78.3501ZM78.7684 13.2702C78.9667 13.0322 79.2889 12.85 79.9111 12.85V10.85C78.852 10.85 77.9003 11.1878 77.2319 11.9898L78.7684 13.2702ZM79.9111 12.85H80.1711V10.85H79.9111V12.85ZM79.1711 11.85V13.423H81.1711V11.85H79.1711ZM80.1711 12.423H79.6771V14.423H80.1711V12.423ZM79.6771 12.423C78.8873 12.423 78.136 12.6417 77.5623 13.2008L78.958 14.6332C79.0602 14.5336 79.2536 14.423 79.6771 14.423V12.423ZM77.5625 13.2005C76.9812 13.7666 76.7661 14.5305 76.7661 15.321H78.7661C78.7661 14.8808 78.8804 14.7088 78.9577 14.6335L77.5625 13.2005ZM76.7661 15.321V19H78.7661V15.321H76.7661ZM77.7661 18H75.9591V20H77.7661V18ZM86.2007 19H85.2007V20H86.2007V19ZM86.2007 10.875V9.875H85.2007V10.875H86.2007ZM88.0467 10.875H89.0467V9.875H88.0467V10.875ZM88.0467 19V20H89.0467V19H88.0467ZM83.4577 11.135H82.4577V12.135H83.4577V11.135ZM83.4577 9.51V8.51H82.4577V9.51H83.4577ZM90.7897 9.51H91.7897V8.51H90.7897V9.51ZM90.7897 11.135V12.135H91.7897V11.135H90.7897ZM87.2007 19V10.875H85.2007V19H87.2007ZM86.2007 11.875H88.0467V9.875H86.2007V11.875ZM87.0467 10.875V19H89.0467V10.875H87.0467ZM88.0467 18H86.2007V20H88.0467V18ZM84.4577 11.135V9.51H82.4577V11.135H84.4577ZM83.4577 10.51H90.7897V8.51H83.4577V10.51ZM89.7897 9.51V11.135H91.7897V9.51H89.7897ZM90.7897 10.135H83.4577V12.135H90.7897V10.135ZM92.056 18.415L91.2836 19.0503L91.2898 19.0576L92.056 18.415ZM91.393 11.928V10.928H90.393V11.928H91.393ZM93.2 11.928H94.2V10.928H93.2V11.928ZM93.564 17.219L92.8329 17.9013L92.8387 17.9075L92.8446 17.9136L93.564 17.219ZM95.566 17.193L94.8589 16.4859L94.8531 16.4917L94.8474 16.4976L95.566 17.193ZM95.969 11.928V10.928H94.969V11.928H95.969ZM97.776 11.928H98.776V10.928H97.776V11.928ZM97.776 19V20H98.776V19H97.776ZM96.346 19H95.346V20H96.346V19ZM96.346 15.997V14.997H95.346V15.997H96.346ZM96.489 15.997H97.489V14.997H96.489V15.997ZM96.216 17.778L95.2818 17.4213L96.216 17.778ZM95.397 18.857L95.9517 19.6891L95.9517 19.6891L95.397 18.857ZM93.954 18.221C93.3818 18.221 93.0511 18.0454 92.8222 17.7724L91.2898 19.0576C91.9622 19.8593 92.8968 20.221 93.954 20.221V18.221ZM92.8283 17.7797C92.593 17.4937 92.393 16.9638 92.393 16.023H90.393C90.393 17.1969 90.635 18.2616 91.2837 19.0503L92.8283 17.7797ZM92.393 16.023V11.928H90.393V16.023H92.393ZM91.393 12.928H93.2V10.928H91.393V12.928ZM92.2 11.928V16.179H94.2V11.928H92.2ZM92.2 16.179C92.2 16.8073 92.3814 17.4175 92.8329 17.9013L94.295 16.5367C94.2612 16.5005 94.2 16.4174 94.2 16.179H92.2ZM92.8446 17.9136C93.3112 18.3969 93.9205 18.596 94.552 18.596V16.596C94.3514 16.596 94.3021 16.5438 94.2834 16.5244L92.8446 17.9136ZM94.552 18.596C95.2053 18.596 95.814 18.3746 96.2846 17.8884L94.8474 16.4976C94.7979 16.5487 94.7307 16.596 94.552 16.596V18.596ZM96.2731 17.9001C96.7673 17.4058 96.969 16.7664 96.969 16.101H94.969C94.969 16.3543 94.9019 16.4428 94.8589 16.4859L96.2731 17.9001ZM96.969 16.101V11.928H94.969V16.101H96.969ZM95.969 12.928H97.776V10.928H95.969V12.928ZM96.776 11.928V19H98.776V11.928H96.776ZM97.776 18H96.346V20H97.776V18ZM97.346 19V15.997H95.346V19H97.346ZM96.346 16.997H96.489V14.997H96.346V16.997ZM95.489 15.997C95.489 16.6301 95.4068 17.0937 95.2818 17.4213L97.1502 18.1347C97.3891 17.509 97.489 16.7852 97.489 15.997H95.489ZM95.2818 17.4213C95.1611 17.7372 95.006 17.9158 94.8423 18.0249L95.9517 19.6891C96.5159 19.3129 96.9068 18.7721 97.1502 18.1347L95.2818 17.4213ZM94.8423 18.0249C94.6791 18.1337 94.4296 18.221 94.032 18.221V20.221C94.7263 20.221 95.3868 20.0656 95.9517 19.6891L94.8423 18.0249ZM94.032 18.221H93.954V20.221H94.032V18.221ZM101.568 21.743L101.493 22.7402L101.495 22.7403L101.568 21.743ZM100.593 21.639H99.5927V22.5063L100.451 22.6289L100.593 21.639ZM100.593 20.131L100.703 19.1371L99.5927 19.0137V20.131H100.593ZM101.594 20.222L101.691 19.2267L101.679 19.2255L101.667 19.2247L101.594 20.222ZM103.999 20.066L103.643 19.1315L103.635 19.1344L103.999 20.066ZM104.792 19.403L103.93 18.896L103.921 18.9108L103.913 18.9259L104.792 19.403ZM105.052 16.881L104.137 16.4774L104.052 16.6702V16.881H105.052ZM105.442 15.997L106.441 16.037L104.527 15.5934L105.442 15.997ZM105.039 17.661L105.919 18.1351L105.923 18.1281L105.039 17.661ZM104.051 18.701L104.541 19.5726L104.548 19.5687L104.555 19.5648L104.051 18.701ZM101.282 18.779L100.859 19.6852L100.866 19.6887L101.282 18.779ZM100.268 18.025L99.5113 18.6792L99.5163 18.6849L99.5214 18.6906L100.268 18.025ZM99.6177 16.894L98.6768 17.2327L98.6768 17.2327L99.6177 16.894ZM99.6177 13.852L98.6829 13.4968L98.679 13.5072L99.6177 13.852ZM100.307 12.721L101.043 13.3976L101.043 13.3976L100.307 12.721ZM104.22 12.097L103.71 12.9576L103.718 12.962L104.22 12.097ZM105.234 13.189L106.125 12.7353L105.234 13.189ZM105.637 14.944L105.801 15.9304L106.669 15.7857L106.636 14.9065L105.637 14.944ZM105.325 14.996H104.325V16.1765L105.489 15.9824L105.325 14.996ZM105.325 11.941V10.941H104.325V11.941H105.325ZM106.755 11.941H107.755V10.941H106.755V11.941ZM106.313 20.248L105.439 19.7611L105.439 19.7611L106.313 20.248ZM104.948 21.405L104.581 20.4747L104.573 20.4779L104.565 20.4811L104.948 21.405ZM104.077 17.271L104.556 18.1489L104.556 18.1489L104.077 17.271ZM104.766 16.595L105.628 17.102L105.628 17.102L104.766 16.595ZM104.753 14.06L103.905 14.59L103.911 14.5994L103.917 14.6087L104.753 14.06ZM104.064 13.436L103.606 14.325L103.617 14.3305L103.627 14.3358L104.064 13.436ZM102.114 13.488L102.632 14.3432L102.639 14.3388L102.114 13.488ZM101.438 14.229L100.548 13.7722L100.548 13.7722L101.438 14.229ZM101.438 16.504L100.548 16.9608L100.548 16.9608L101.438 16.504ZM102.114 17.245L101.595 18.1003L101.607 18.1069L102.114 17.245ZM102.608 20.782C102.295 20.782 101.973 20.77 101.641 20.7457L101.495 22.7403C101.873 22.768 102.244 22.782 102.608 22.782V20.782ZM101.642 20.7458C101.315 20.7213 101.013 20.6888 100.734 20.6491L100.451 22.6289C100.779 22.6758 101.127 22.7127 101.493 22.7402L101.642 20.7458ZM101.593 21.639V20.131H99.5927V21.639H101.593ZM100.482 21.1249C100.808 21.1611 101.155 21.1925 101.521 21.2193L101.667 19.2247C101.322 19.1995 101.001 19.1702 100.703 19.1371L100.482 21.1249ZM101.497 21.2173C101.88 21.2547 102.246 21.274 102.595 21.274V19.274C102.319 19.274 102.018 19.2587 101.691 19.2267L101.497 21.2173ZM102.595 21.274C103.241 21.274 103.847 21.1987 104.362 20.9976L103.635 19.1344C103.44 19.2107 103.109 19.274 102.595 19.274V21.274ZM104.355 21.0005C104.911 20.7884 105.377 20.4206 105.671 19.8801L103.913 18.9259C103.877 18.9921 103.814 19.0663 103.643 19.1315L104.355 21.0005ZM105.654 19.91C105.943 19.4176 106.052 18.8505 106.052 18.272H104.052C104.052 18.6122 103.987 18.799 103.93 18.896L105.654 19.91ZM106.052 18.272V16.881H104.052V18.272H106.052ZM105.967 17.2846L106.357 16.4006L104.527 15.5934L104.137 16.4774L105.967 17.2846ZM104.443 15.957C104.421 16.4945 104.312 16.8955 104.155 17.1939L105.923 18.1281C106.251 17.5078 106.41 16.7995 106.441 16.037L104.443 15.957ZM104.158 17.1869C103.997 17.4861 103.794 17.6932 103.547 17.8372L104.555 19.5648C105.14 19.2235 105.595 18.7372 105.919 18.1351L104.158 17.1869ZM103.56 17.8294C103.315 17.9677 103.007 18.052 102.608 18.052V20.052C103.3 20.052 103.955 19.9023 104.541 19.5726L103.56 17.8294ZM102.608 18.052C102.25 18.052 101.952 17.9857 101.697 17.8693L100.866 19.6887C101.409 19.9363 101.995 20.052 102.608 20.052V18.052ZM101.705 17.8728C101.437 17.7481 101.209 17.5786 101.014 17.3594L99.5214 18.6906C99.8979 19.1128 100.346 19.4459 100.859 19.6852L101.705 17.8728ZM101.024 17.3708C100.834 17.1508 100.677 16.883 100.559 16.5553L98.6768 17.2327C98.8708 17.7716 99.147 18.2578 99.5113 18.6792L101.024 17.3708ZM100.559 16.5553C100.444 16.2382 100.384 15.8899 100.384 15.503H98.3837C98.3837 16.1041 98.479 16.6831 98.6768 17.2327L100.559 16.5553ZM100.384 15.503V15.23H98.3837V15.503H100.384ZM100.384 15.23C100.384 14.8428 100.445 14.5013 100.556 14.1968L98.679 13.5072C98.4789 14.052 98.3837 14.6292 98.3837 15.23H100.384ZM100.552 14.2072C100.675 13.8849 100.84 13.6188 101.043 13.3976L99.5704 12.0444C99.1843 12.4645 98.8898 12.9524 98.6829 13.4968L100.552 14.2072ZM101.043 13.3976C101.24 13.1835 101.473 13.0187 101.751 12.9002L100.968 11.0598C100.432 11.288 99.963 11.6172 99.5704 12.0444L101.043 13.3976ZM101.751 12.9002C102.021 12.7853 102.337 12.72 102.712 12.72V10.72C102.099 10.72 101.513 10.828 100.968 11.0598L101.751 12.9002ZM102.712 12.72C103.145 12.72 103.465 12.8125 103.71 12.9576L104.729 11.2364C104.125 10.8788 103.44 10.72 102.712 10.72V12.72ZM103.718 12.962C103.973 13.11 104.181 13.3256 104.343 13.6427L106.125 12.7353C105.801 12.099 105.333 11.5867 104.721 11.232L103.718 12.962ZM104.343 13.6427C104.503 13.9577 104.615 14.3917 104.637 14.9815L106.636 14.9065C106.606 14.1096 106.45 13.3736 106.125 12.7353L104.343 13.6427ZM105.472 13.9576L105.16 14.0096L105.489 15.9824L105.801 15.9304L105.472 13.9576ZM106.325 14.996V11.941H104.325V14.996H106.325ZM105.325 12.941H106.755V10.941H105.325V12.941ZM105.755 11.941V18.168H107.755V11.941H105.755ZM105.755 18.168C105.755 18.9227 105.623 19.4306 105.439 19.7611L107.186 20.7349C107.591 20.008 107.755 19.1293 107.755 18.168H105.755ZM105.439 19.7611C105.268 20.0687 105.002 20.3084 104.581 20.4747L105.315 22.3353C106.124 22.0162 106.768 21.4846 107.186 20.7349L105.439 19.7611ZM104.565 20.4811C104.121 20.6649 103.484 20.782 102.608 20.782V22.782C103.638 22.782 104.561 22.6478 105.33 22.3289L104.565 20.4811ZM103.128 18.505C103.631 18.505 104.113 18.3902 104.556 18.1489L103.598 16.3931C103.468 16.4638 103.318 16.505 103.128 16.505V18.505ZM104.556 18.1489C105.008 17.9019 105.367 17.5447 105.628 17.102L103.904 16.088C103.817 16.2347 103.717 16.3281 103.598 16.3931L104.556 18.1489ZM105.628 17.102C105.909 16.6235 106.026 16.0847 106.026 15.529H104.026C104.026 15.8053 103.969 15.9772 103.904 16.088L105.628 17.102ZM106.026 15.529V15.074H104.026V15.529H106.026ZM106.026 15.074C106.026 14.5202 105.898 13.9821 105.589 13.5113L103.917 14.6087C103.972 14.6926 104.026 14.8304 104.026 15.074H106.026ZM105.601 13.53C105.331 13.098 104.96 12.7594 104.5 12.5362L103.627 14.3358C103.739 14.3899 103.828 14.4673 103.905 14.59L105.601 13.53ZM104.522 12.547C104.087 12.323 103.617 12.215 103.128 12.215V14.215C103.315 14.215 103.469 14.2543 103.606 14.325L104.522 12.547ZM103.128 12.215C102.58 12.215 102.057 12.348 101.588 12.6372L102.639 14.3388C102.76 14.264 102.913 14.215 103.128 14.215V12.215ZM101.595 12.6328C101.139 12.9095 100.79 13.3003 100.548 13.7722L102.327 14.6858C102.414 14.5164 102.517 14.4132 102.632 14.3432L101.595 12.6328ZM100.548 13.7722C100.296 14.2626 100.191 14.8075 100.191 15.373H102.191C102.191 15.0545 102.25 14.8367 102.327 14.6858L100.548 13.7722ZM100.191 15.373C100.191 15.9334 100.298 16.473 100.548 16.9608L102.327 16.0472C102.248 15.8937 102.191 15.6793 102.191 15.373H100.191ZM100.548 16.9608C100.79 17.4327 101.139 17.8235 101.595 18.1002L102.632 16.3898C102.517 16.3198 102.414 16.2166 102.327 16.0472L100.548 16.9608ZM101.607 18.1069C102.072 18.3808 102.589 18.505 103.128 18.505V16.505C102.904 16.505 102.745 16.4559 102.621 16.3831L101.607 18.1069ZM113.003 19H112.003V20H113.003V19ZM113.003 16.907H114.003V15.907H113.003V16.907ZM112.704 16.907H111.704V17.907H112.704V16.907ZM110.702 13.384L110.73 14.3836L110.73 14.3836L110.702 13.384ZM109.779 13.423L109.807 14.4226L109.821 14.4222L109.834 14.4215L109.779 13.423ZM108.96 13.462H107.96V14.536L109.031 14.4595L108.96 13.462ZM108.96 11.928L108.873 10.9318L107.96 11.0112V11.928H108.96ZM109.636 11.876L109.567 10.8784L109.567 10.8784L109.636 11.876ZM110.403 11.85V12.85H110.419L110.435 12.8495L110.403 11.85ZM112.964 12.123L112.592 13.0515L112.598 13.0538L112.964 12.123ZM114.056 13.02L113.197 13.5318L113.201 13.5385L113.205 13.5451L114.056 13.02ZM114.433 19V20H115.433V19H114.433ZM109.376 18.909L108.945 19.8115L108.953 19.8152L109.376 18.909ZM108.479 18.129L107.627 18.6531L107.632 18.6609L107.637 18.6687L108.479 18.129ZM108.544 15.633L107.759 15.0134L107.754 15.0198L107.749 15.0263L108.544 15.633ZM109.623 14.892L109.291 13.9487L109.285 13.9507L109.623 14.892ZM112.899 14.645H113.899V13.645H112.899V14.645ZM112.899 15.724V16.724H113.899V15.724H112.899ZM110.273 16.036L110.95 16.7719L110.951 16.7708L110.273 16.036ZM110.273 17.596L109.596 18.3319L109.603 18.3385L109.61 18.345L110.273 17.596ZM111.924 17.765L112.308 18.6881L112.317 18.6843L112.326 18.6803L111.924 17.765ZM112.457 17.297L111.62 16.7497L111.614 16.7579L112.457 17.297ZM112.704 16.387L113.458 15.7299L111.818 13.8493L111.705 16.3416L112.704 16.387ZM113.146 16.894L114.142 16.9814L114.179 16.5576L113.9 16.2369L113.146 16.894ZM112.782 18.142L111.92 17.634L111.915 17.6423L111.911 17.6507L112.782 18.142ZM111.976 18.922L112.432 19.8119L112.441 19.8074L111.976 18.922ZM114.003 19V16.907H112.003V19H114.003ZM113.003 15.907H112.704V17.907H113.003V15.907ZM113.704 16.907V14.58H111.704V16.907H113.704ZM113.704 14.58C113.704 14.0258 113.568 13.4195 113.112 12.9629L111.698 14.3771C111.673 14.3521 111.671 14.3365 111.679 14.3592C111.688 14.3867 111.704 14.4546 111.704 14.58H113.704ZM113.112 12.9629C112.652 12.5028 112.037 12.371 111.482 12.371V14.371C111.613 14.371 111.686 14.3872 111.716 14.3971C111.742 14.4054 111.725 14.4047 111.698 14.3771L113.112 12.9629ZM111.482 12.371C111.253 12.371 110.983 12.3756 110.673 12.3844L110.73 14.3836C111.028 14.3751 111.277 14.371 111.482 14.371V12.371ZM110.673 12.3844C110.361 12.3933 110.044 12.4067 109.723 12.4245L109.834 14.4215C110.138 14.4046 110.436 14.392 110.73 14.3836L110.673 12.3844ZM109.75 12.4234C109.436 12.4324 109.148 12.446 108.888 12.4645L109.031 14.4595C109.256 14.4434 109.515 14.4309 109.807 14.4226L109.75 12.4234ZM109.96 13.462V11.928H107.96V13.462H109.96ZM109.046 12.9242C109.238 12.9075 109.458 12.8907 109.705 12.8736L109.567 10.8784C109.311 10.896 109.08 10.9138 108.873 10.9318L109.046 12.9242ZM109.705 12.8736C109.932 12.8579 110.165 12.85 110.403 12.85V10.85C110.121 10.85 109.842 10.8594 109.567 10.8784L109.705 12.8736ZM110.435 12.8495C110.694 12.8411 110.935 12.837 111.157 12.837V10.837C110.911 10.837 110.648 10.8416 110.37 10.8505L110.435 12.8495ZM111.157 12.837C111.807 12.837 112.272 12.9234 112.592 13.0515L113.335 11.1945C112.702 10.9413 111.963 10.837 111.157 10.837V12.837ZM112.598 13.0538C112.899 13.1719 113.079 13.3342 113.197 13.5318L114.915 12.5082C114.547 11.8912 113.999 11.4554 113.329 11.1922L112.598 13.0538ZM113.205 13.5451C113.329 13.7459 113.433 14.0787 113.433 14.619H115.433C115.433 13.842 115.286 13.1088 114.907 12.4949L113.205 13.5451ZM113.433 14.619V19H115.433V14.619H113.433ZM114.433 18H113.003V20H114.433V18ZM110.728 18.182C110.335 18.182 110.034 18.1125 109.799 18.0028L108.953 19.8152C109.498 20.0695 110.097 20.182 110.728 20.182V18.182ZM109.806 18.0065C109.584 17.9004 109.431 17.7621 109.321 17.5893L107.637 18.6687C107.959 19.1719 108.405 19.5536 108.945 19.8115L109.806 18.0065ZM109.33 17.6049C109.237 17.4536 109.167 17.2361 109.167 16.907H107.167C107.167 17.5313 107.304 18.1284 107.627 18.6531L109.33 17.6049ZM109.167 16.907C109.167 16.5494 109.251 16.3544 109.339 16.2397L107.749 15.0263C107.334 15.5703 107.167 16.2246 107.167 16.907H109.167ZM109.329 16.2526C109.455 16.0929 109.648 15.9453 109.96 15.8333L109.285 13.9507C108.679 14.1681 108.153 14.5144 107.759 15.0134L109.329 16.2526ZM109.955 15.8353C110.293 15.7164 110.722 15.645 111.261 15.645V13.645C110.552 13.645 109.889 13.7382 109.291 13.9487L109.955 15.8353ZM111.261 15.645H112.899V13.645H111.261V15.645ZM111.899 14.645V15.724H113.899V14.645H111.899ZM112.899 14.724H111.235V16.724H112.899V14.724ZM111.235 14.724C110.658 14.724 110.062 14.8697 109.594 15.3012L110.951 16.7708C110.934 16.7863 110.979 16.724 111.235 16.724V14.724ZM109.596 15.3001C109.154 15.7068 108.948 16.2435 108.948 16.816H110.948C110.948 16.7922 110.95 16.7775 110.951 16.7703C110.952 16.7633 110.953 16.7623 110.952 16.7651C110.951 16.7681 110.949 16.7716 110.947 16.7745C110.945 16.7772 110.945 16.7762 110.95 16.7719L109.596 15.3001ZM108.948 16.816C108.948 17.3885 109.154 17.9252 109.596 18.3319L110.95 16.8601C110.945 16.8558 110.945 16.8548 110.947 16.8575C110.949 16.8604 110.951 16.8639 110.952 16.8669C110.953 16.8697 110.952 16.8687 110.951 16.8617C110.95 16.8545 110.948 16.8398 110.948 16.816H108.948ZM109.61 18.345C110.078 18.7588 110.668 18.895 111.235 18.895V16.895C110.969 16.895 110.918 16.8318 110.935 16.847L109.61 18.345ZM111.235 18.895C111.603 18.895 111.965 18.8311 112.308 18.6881L111.539 16.8419C111.466 16.8723 111.369 16.895 111.235 16.895V18.895ZM112.326 18.6803C112.739 18.4987 113.064 18.2037 113.299 17.8361L111.614 16.7579C111.572 16.8237 111.542 16.8406 111.521 16.8497L112.326 18.6803ZM113.294 17.8442C113.572 17.4193 113.68 16.9217 113.703 16.4324L111.705 16.3416C111.692 16.6149 111.637 16.7241 111.62 16.7498L113.294 17.8442ZM111.95 17.0441L112.392 17.5511L113.9 16.2369L113.458 15.7299L111.95 17.0441ZM112.15 16.8066C112.116 17.1901 112.027 17.4537 111.92 17.634L113.643 18.65C113.935 18.1543 114.089 17.5859 114.142 16.9814L112.15 16.8066ZM111.911 17.6507C111.816 17.8194 111.689 17.9433 111.511 18.0366L112.441 19.8074C112.956 19.5367 113.367 19.1406 113.653 18.6333L111.911 17.6507ZM111.519 18.0322C111.359 18.1147 111.109 18.182 110.728 18.182V20.182C111.334 20.182 111.917 20.076 112.432 19.8118L111.519 18.0322ZM116.641 18.61L116.035 19.4054L116.042 19.4108L116.049 19.416L116.641 18.61ZM115.783 16.894V15.894H114.747L114.784 16.9297L115.783 16.894ZM117.408 16.894L118.403 16.7875L118.307 15.894H117.408V16.894ZM117.811 17.557L118.446 16.7843L118.446 16.7843L117.811 17.557ZM119.982 17.622L119.468 16.7645L119.461 16.7684L119.455 16.7724L119.982 17.622ZM120.073 16.426L119.485 17.2347L119.494 17.2409L119.502 17.2469L120.073 16.426ZM119.085 16.153L118.982 17.1477L118.993 17.1487L119.085 16.153ZM118.461 16.088L118.352 17.082L118.358 17.0826L118.461 16.088ZM116.641 15.412L117.292 14.6527L117.292 14.6527L116.641 15.412ZM116.368 12.734L117.173 13.3272L117.173 13.3272L116.368 12.734ZM117.369 11.993L117.731 12.9254L117.741 12.9215L117.369 11.993ZM120.957 12.305L121.536 11.4895L121.536 11.4895L120.957 12.305ZM121.802 13.982V14.982H122.838L122.802 13.9467L121.802 13.982ZM120.177 13.982L119.18 14.0532L119.246 14.982H120.177V13.982ZM119.813 13.358L119.204 14.1506L119.204 14.1506L119.813 13.358ZM117.954 13.319L118.532 14.135L118.532 14.135L117.954 13.319ZM117.889 14.411L117.296 15.2161L117.306 15.2233L117.316 15.2302L117.889 14.411ZM118.721 14.658L118.608 15.6516L118.618 15.6526L118.721 14.658ZM119.345 14.723L119.449 13.7284L119.449 13.7284L119.345 14.723ZM121.295 15.412L120.672 16.1943L120.679 16.1998L121.295 15.412ZM121.62 18.142L120.82 17.542L120.818 17.5453L121.62 18.142ZM120.554 18.935L120.171 18.0114L120.554 18.935ZM118.929 18.221C118.087 18.221 117.559 18.043 117.233 17.804L116.049 19.416C116.833 19.9917 117.831 20.221 118.929 20.221V18.221ZM117.247 17.8146C116.956 17.5925 116.799 17.308 116.783 16.8583L114.784 16.9297C114.82 17.936 115.235 18.7955 116.035 19.4054L117.247 17.8146ZM115.783 17.894H117.408V15.894H115.783V17.894ZM116.414 17.0005C116.475 17.5726 116.792 18.0138 117.177 18.3297L118.446 16.7843C118.394 16.7413 118.381 16.7185 118.383 16.7223C118.384 16.7246 118.389 16.7323 118.393 16.7451C118.398 16.7581 118.401 16.7727 118.403 16.7875L116.414 17.0005ZM117.177 18.3297C117.683 18.7454 118.344 18.856 118.955 18.856V16.856C118.755 16.856 118.619 16.8364 118.532 16.8137C118.447 16.7914 118.431 16.7719 118.446 16.7843L117.177 18.3297ZM118.955 18.856C119.494 18.856 120.043 18.7615 120.51 18.4716L119.455 16.7724C119.419 16.7945 119.284 16.856 118.955 16.856V18.856ZM120.497 18.4795C121.012 18.1705 121.372 17.6557 121.372 16.985H119.372C119.372 16.9709 119.374 16.9463 119.383 16.915C119.391 16.8832 119.405 16.8518 119.422 16.8236C119.457 16.7655 119.489 16.7516 119.468 16.7645L120.497 18.4795ZM121.372 16.985C121.372 16.4092 121.1 15.9223 120.644 15.6051L119.502 17.2469C119.492 17.2395 119.451 17.207 119.416 17.1414C119.38 17.0744 119.372 17.0146 119.372 16.985H121.372ZM120.661 15.6173C120.241 15.3111 119.679 15.2037 119.178 15.1573L118.993 17.1487C119.188 17.1668 119.326 17.1925 119.417 17.2176C119.513 17.2443 119.52 17.2601 119.485 17.2347L120.661 15.6173ZM119.189 15.1584L118.565 15.0934L118.358 17.0826L118.982 17.1476L119.189 15.1584ZM118.571 15.094C117.901 15.0205 117.512 14.8415 117.292 14.6527L115.991 16.1713C116.62 16.7105 117.444 16.9822 118.352 17.082L118.571 15.094ZM117.292 14.6527C117.109 14.4962 117.004 14.2987 117.004 13.956H115.004C115.004 14.8266 115.324 15.5998 115.991 16.1713L117.292 14.6527ZM117.004 13.956C117.004 13.6432 117.08 13.4544 117.173 13.3272L115.563 12.1408C115.172 12.6723 115.004 13.2982 115.004 13.956H117.004ZM117.173 13.3272C117.291 13.1677 117.462 13.0294 117.731 12.9254L117.008 11.0606C116.427 11.2859 115.931 11.6416 115.563 12.1408L117.173 13.3272ZM117.741 12.9215C118.036 12.8034 118.4 12.733 118.851 12.733V10.733C118.193 10.733 117.569 10.8359 116.998 11.0645L117.741 12.9215ZM118.851 12.733C119.575 12.733 120.056 12.8919 120.379 13.1205L121.536 11.4895C120.783 10.9554 119.861 10.733 118.851 10.733V12.733ZM120.379 13.1205C120.629 13.2983 120.786 13.5497 120.803 14.0173L122.802 13.9467C122.766 12.941 122.36 12.0743 121.536 11.4895L120.379 13.1205ZM121.802 12.982H120.177V14.982H121.802V12.982ZM121.175 13.9108C121.134 13.3345 120.833 12.8805 120.423 12.5654L119.204 14.1506C119.232 14.1724 119.225 14.1739 119.21 14.1479C119.202 14.1351 119.195 14.119 119.189 14.1006C119.183 14.0822 119.181 14.0658 119.18 14.0532L121.175 13.9108ZM120.423 12.5654C119.955 12.2056 119.38 12.098 118.838 12.098V14.098C119.146 14.098 119.221 14.1638 119.204 14.1506L120.423 12.5654ZM118.838 12.098C118.347 12.098 117.818 12.19 117.376 12.503L118.532 14.135C118.518 14.1454 118.524 14.1358 118.574 14.1234C118.625 14.1107 118.71 14.098 118.838 14.098V12.098ZM117.376 12.503C116.931 12.8182 116.642 13.3002 116.642 13.891H118.642C118.642 13.928 118.632 13.9885 118.598 14.0514C118.566 14.1111 118.531 14.1358 118.532 14.135L117.376 12.503ZM116.642 13.891C116.642 14.3967 116.847 14.8851 117.296 15.2161L118.483 13.6059C118.524 13.6365 118.573 13.6888 118.607 13.7609C118.64 13.8298 118.642 13.8809 118.642 13.891H116.642ZM117.316 15.2302C117.696 15.4966 118.176 15.6025 118.608 15.6516L118.834 13.6644C118.684 13.6473 118.58 13.6252 118.512 13.6051C118.441 13.5841 118.436 13.5727 118.463 13.5918L117.316 15.2302ZM118.618 15.6526L119.242 15.7176L119.449 13.7284L118.825 13.6634L118.618 15.6526ZM119.242 15.7176C119.956 15.7921 120.402 15.979 120.672 16.1943L121.918 14.6297C121.253 14.0997 120.398 13.8273 119.449 13.7284L119.242 15.7176ZM120.679 16.1998C120.901 16.3731 121.01 16.5787 121.01 16.92H123.01C123.01 15.9959 122.643 15.1962 121.911 14.6242L120.679 16.1998ZM121.01 16.92C121.01 17.19 120.94 17.3826 120.82 17.542L122.42 18.742C122.821 18.2081 123.01 17.586 123.01 16.92H121.01ZM120.818 17.5453C120.692 17.7142 120.494 17.8773 120.171 18.0114L120.938 19.8586C121.533 19.6114 122.046 19.2458 122.423 18.7387L120.818 17.5453ZM120.171 18.0114C119.86 18.1406 119.454 18.221 118.929 18.221V20.221C119.653 20.221 120.33 20.1108 120.938 19.8586L120.171 18.0114ZM123.503 19H122.503V20H123.503V19ZM123.503 11.941V10.941H122.503V11.941H123.503ZM124.933 11.941H125.933V10.941H124.933V11.941ZM124.933 14.97V15.97H125.933V14.97H124.933ZM124.803 14.97H123.803V15.97H124.803V14.97ZM125.076 13.189L126.01 13.5457L126.012 13.5401L125.076 13.189ZM125.882 12.097L126.446 12.9228L126.45 12.9199L125.882 12.097ZM128.664 12.097L128.087 12.9134L128.098 12.9214L128.109 12.9291L128.664 12.097ZM129.47 13.189L128.528 13.5253L128.532 13.5356L128.536 13.5457L129.47 13.189ZM129.743 14.97V15.97H130.743V14.97H129.743ZM129.288 14.97H128.288V15.97H129.288V14.97ZM129.561 13.189L128.63 12.8233L128.627 12.8323L129.561 13.189ZM130.38 12.097L130.944 12.9228L130.948 12.9199L130.38 12.097ZM133.175 12.097L132.607 12.9199L132.614 12.9245L132.62 12.9291L133.175 12.097ZM133.994 13.189L133.058 13.5401L133.062 13.5503L133.066 13.5604L133.994 13.189ZM134.28 19V20H135.28V19H134.28ZM132.473 19H131.473V20H132.473V19ZM132.135 13.748L131.369 14.3906L131.374 14.3968L131.379 14.4029L132.135 13.748ZM130.172 13.761L130.902 14.4442L130.908 14.4384L130.913 14.4325L130.172 13.761ZM129.795 19V20H130.795V19H129.795ZM127.988 19H126.988V20H127.988V19ZM127.65 13.748L126.884 14.3906L126.889 14.3968L126.894 14.4029L127.65 13.748ZM125.687 13.761L126.417 14.4442L126.423 14.4384L126.428 14.4325L125.687 13.761ZM125.31 19V20H126.31V19H125.31ZM124.503 19V11.941H122.503V19H124.503ZM123.503 12.941H124.933V10.941H123.503V12.941ZM123.933 11.941V14.97H125.933V11.941H123.933ZM124.933 13.97H124.803V15.97H124.933V13.97ZM125.803 14.97C125.803 14.3369 125.885 13.8733 126.01 13.5457L124.142 12.8323C123.903 13.458 123.803 14.1818 123.803 14.97H125.803ZM126.012 13.5401C126.137 13.2074 126.293 13.0273 126.446 12.9228L125.318 11.2712C124.76 11.6521 124.379 12.2 124.14 12.8379L126.012 13.5401ZM126.45 12.9199C126.614 12.8067 126.855 12.72 127.234 12.72V10.72C126.538 10.72 125.878 10.8846 125.314 11.2741L126.45 12.9199ZM127.234 12.72H127.312V10.72H127.234V12.72ZM127.312 12.72C127.704 12.72 127.939 12.8089 128.087 12.9134L129.242 11.2806C128.679 10.8825 128.012 10.72 127.312 10.72V12.72ZM128.109 12.9291C128.264 13.0322 128.414 13.2053 128.528 13.5253L130.412 12.8527C130.179 12.202 129.792 11.6472 129.219 11.2649L128.109 12.9291ZM128.536 13.5457C128.661 13.8733 128.743 14.3369 128.743 14.97H130.743C130.743 14.1818 130.643 13.458 130.404 12.8323L128.536 13.5457ZM129.743 13.97H129.288V15.97H129.743V13.97ZM130.288 14.97C130.288 14.3369 130.37 13.8733 130.495 13.5457L128.627 12.8323C128.388 13.458 128.288 14.1818 128.288 14.97H130.288ZM130.492 13.5547C130.625 13.2159 130.787 13.0303 130.944 12.9228L129.816 11.2712C129.263 11.6491 128.879 12.1914 128.63 12.8233L130.492 13.5547ZM130.948 12.9199C131.112 12.8067 131.353 12.72 131.732 12.72V10.72C131.036 10.72 130.376 10.8846 129.812 11.2741L130.948 12.9199ZM131.732 12.72H131.81V10.72H131.732V12.72ZM131.81 12.72C132.201 12.72 132.445 12.8085 132.607 12.9199L133.743 11.2741C133.177 10.8829 132.511 10.72 131.81 10.72V12.72ZM132.62 12.9291C132.779 13.0351 132.935 13.2139 133.058 13.5401L134.93 12.8379C134.689 12.1935 134.299 11.6442 133.73 11.2649L132.62 12.9291ZM133.066 13.5604C133.195 13.883 133.28 14.341 133.28 14.97H135.28C135.28 14.1776 135.175 13.4484 134.923 12.8176L133.066 13.5604ZM133.28 14.97V19H135.28V14.97H133.28ZM134.28 18H132.473V20H134.28V18ZM133.473 19V14.801H131.473V19H133.473ZM133.473 14.801C133.473 14.1886 133.314 13.5817 132.891 13.0931L131.379 14.4029C131.407 14.4343 131.473 14.5294 131.473 14.801H133.473ZM132.901 13.1054C132.45 12.5673 131.824 12.345 131.173 12.345V14.345C131.274 14.345 131.323 14.3612 131.339 14.3681C131.351 14.3731 131.358 14.3774 131.369 14.3906L132.901 13.1054ZM131.173 12.345C130.51 12.345 129.894 12.5784 129.431 13.0895L130.913 14.4325C130.953 14.389 131.004 14.345 131.173 14.345V12.345ZM129.442 13.0778C128.977 13.5749 128.795 14.2059 128.795 14.853H130.795C130.795 14.5814 130.865 14.4844 130.902 14.4442L129.442 13.0778ZM128.795 14.853V19H130.795V14.853H128.795ZM129.795 18H127.988V20H129.795V18ZM128.988 19V14.801H126.988V19H128.988ZM128.988 14.801C128.988 14.1886 128.829 13.5817 128.406 13.0931L126.894 14.4029C126.922 14.4343 126.988 14.5294 126.988 14.801H128.988ZM128.416 13.1054C127.965 12.5673 127.339 12.345 126.688 12.345V14.345C126.789 14.345 126.838 14.3612 126.854 14.3681C126.866 14.3731 126.873 14.3774 126.884 14.3906L128.416 13.1054ZM126.688 12.345C126.025 12.345 125.409 12.5784 124.946 13.0895L126.428 14.4325C126.468 14.389 126.519 14.345 126.688 14.345V12.345ZM124.957 13.0778C124.492 13.5749 124.31 14.2059 124.31 14.853H126.31C126.31 14.5814 126.38 14.4844 126.417 14.4442L124.957 13.0778ZM124.31 14.853V19H126.31V14.853H124.31ZM125.31 18H123.503V20H125.31V18ZM136.718 18.415L135.946 19.0503L135.952 19.0576L136.718 18.415ZM136.055 11.928V10.928H135.055V11.928H136.055ZM137.862 11.928H138.862V10.928H137.862V11.928ZM138.226 17.219L137.495 17.9013L137.501 17.9075L137.507 17.9136L138.226 17.219ZM140.228 17.193L139.521 16.4859L139.515 16.4917L139.509 16.4976L140.228 17.193ZM140.631 11.928V10.928H139.631V11.928H140.631ZM142.438 11.928H143.438V10.928H142.438V11.928ZM142.438 19V20H143.438V19H142.438ZM141.008 19H140.008V20H141.008V19ZM141.008 15.997V14.997H140.008V15.997H141.008ZM141.151 15.997H142.151V14.997H141.151V15.997ZM140.878 17.778L139.944 17.4213L140.878 17.778ZM140.059 18.857L140.614 19.6891L140.614 19.6891L140.059 18.857ZM138.616 18.221C138.044 18.221 137.713 18.0454 137.484 17.7724L135.952 19.0576C136.624 19.8593 137.559 20.221 138.616 20.221V18.221ZM137.49 17.7797C137.255 17.4937 137.055 16.9638 137.055 16.023H135.055C135.055 17.1969 135.297 18.2616 135.946 19.0503L137.49 17.7797ZM137.055 16.023V11.928H135.055V16.023H137.055ZM136.055 12.928H137.862V10.928H136.055V12.928ZM136.862 11.928V16.179H138.862V11.928H136.862ZM136.862 16.179C136.862 16.8073 137.043 17.4175 137.495 17.9013L138.957 16.5367C138.923 16.5005 138.862 16.4174 138.862 16.179H136.862ZM137.507 17.9136C137.973 18.3969 138.583 18.596 139.214 18.596V16.596C139.014 16.596 138.964 16.5438 138.945 16.5244L137.507 17.9136ZM139.214 18.596C139.867 18.596 140.476 18.3746 140.947 17.8884L139.509 16.4976C139.46 16.5487 139.393 16.596 139.214 16.596V18.596ZM140.935 17.9001C141.429 17.4058 141.631 16.7664 141.631 16.101H139.631C139.631 16.3543 139.564 16.4428 139.521 16.4859L140.935 17.9001ZM141.631 16.101V11.928H139.631V16.101H141.631ZM140.631 12.928H142.438V10.928H140.631V12.928ZM141.438 11.928V19H143.438V11.928H141.438ZM142.438 18H141.008V20H142.438V18ZM142.008 19V15.997H140.008V19H142.008ZM141.008 16.997H141.151V14.997H141.008V16.997ZM140.151 15.997C140.151 16.6301 140.069 17.0937 139.944 17.4213L141.812 18.1347C142.051 17.509 142.151 16.7852 142.151 15.997H140.151ZM139.944 17.4213C139.823 17.7372 139.668 17.9158 139.504 18.0249L140.614 19.6891C141.178 19.3129 141.569 18.7721 141.812 18.1347L139.944 17.4213ZM139.504 18.0249C139.341 18.1337 139.092 18.221 138.694 18.221V20.221C139.388 20.221 140.049 20.0656 140.614 19.6891L139.504 18.0249ZM138.694 18.221H138.616V20.221H138.694V18.221ZM144.579 15.919H143.579V16.919H144.579V15.919ZM144.579 9.51V8.51H143.579V9.51H144.579ZM146.425 9.51H147.425V8.51H146.425V9.51ZM146.425 15.919V16.919H147.425V15.919H146.425ZM144.436 19H143.436V20H144.436V19ZM144.436 17.076V16.076H143.436V17.076H144.436ZM146.568 17.076H147.568V16.076H146.568V17.076ZM146.568 19V20H147.568V19H146.568ZM145.579 15.919V9.51H143.579V15.919H145.579ZM144.579 10.51H146.425V8.51H144.579V10.51ZM145.425 9.51V15.919H147.425V9.51H145.425ZM146.425 14.919H144.579V16.919H146.425V14.919ZM145.436 19V17.076H143.436V19H145.436ZM144.436 18.076H146.568V16.076H144.436V18.076ZM145.568 17.076V19H147.568V17.076H145.568ZM146.568 18H144.436V20H146.568V18Z" fill="white" mask="url(#path-2-outside-1_1214_4525)"/>
</svg>
