<svg width="60" height="60" viewBox="0 0 60 60" fill="none" xmlns="http://www.w3.org/2000/svg">
<path fill-rule="evenodd" clip-rule="evenodd" d="M44.0945 17.7744V17.7744C43.162 17.7744 42.317 17.2369 41.9195 16.3969C41.202 14.8769 40.2895 12.9344 39.7495 11.8769C38.952 10.3044 37.6595 9.38937 35.8695 9.37688C35.8395 9.37437 24.1595 9.37437 24.1295 9.37688C22.3395 9.38937 21.0495 10.3044 20.2495 11.8769C19.712 12.9344 18.7995 14.8769 18.082 16.3969C17.6845 17.2369 16.837 17.7744 15.907 17.7744V17.7744C10.917 17.7744 6.87451 21.8169 6.87451 26.8044V41.6444C6.87451 46.6294 10.917 50.6744 15.907 50.6744H44.0945C49.082 50.6744 53.1245 46.6294 53.1245 41.6444V26.8044C53.1245 21.8169 49.082 17.7744 44.0945 17.7744Z" stroke="#200E32" stroke-width="1.5" stroke-linecap="round" stroke-linejoin="round"/>
<path fill-rule="evenodd" clip-rule="evenodd" d="M22.0535 33.3359C22.051 37.7184 25.6285 41.3034 30.0035 41.3009C34.371 41.2959 37.9385 37.7259 37.946 33.3534C37.9535 28.9634 34.3885 25.3859 30.0085 25.3809C25.6035 25.3759 22.0185 29.0134 22.0535 33.3359Z" stroke="#200E32" stroke-width="1.5" stroke-linecap="round" stroke-linejoin="round"/>
<path d="M42.2563 27.4877C42.0147 27.4629 41.7762 27.3999 41.509 27.2924C41.2118 27.1603 40.9545 26.9924 40.7057 26.7396C40.2588 26.2643 40 25.6426 40 25.0012C40 24.6605 40.0697 24.3229 40.2057 24.017C40.342 23.7071 40.5035 23.4457 40.7954 23.1614C41.0175 22.968 41.245 22.8123 41.556 22.6753C42.4783 22.3099 43.5753 22.5282 44.2608 23.2135C44.4663 23.416 44.6393 23.6603 44.7354 23.8663L44.7923 24.0124C44.9303 24.3229 45 24.6605 45 25.0012C45 25.6555 44.7445 26.2607 44.2704 26.7644C43.8605 27.177 43.3222 27.4307 42.748 27.4877L42.5 27.5L42.2563 27.4877Z" fill="#200E32"/>
</svg>
