<svg width="89" height="83" viewBox="0 0 89 83" fill="none" xmlns="http://www.w3.org/2000/svg">
<ellipse cx="44.5" cy="41.5" rx="44.5" ry="41.5" fill="#144795"/>
<path fill-rule="evenodd" clip-rule="evenodd" d="M59.0945 29.7744V29.7744C58.162 29.7744 57.317 29.2369 56.9195 28.3969C56.202 26.8769 55.2895 24.9344 54.7495 23.8769C53.952 22.3044 52.6595 21.3894 50.8695 21.3769C50.8395 21.3744 39.1595 21.3744 39.1295 21.3769C37.3395 21.3894 36.0495 22.3044 35.2495 23.8769C34.712 24.9344 33.7995 26.8769 33.082 28.3969C32.6845 29.2369 31.837 29.7744 30.907 29.7744V29.7744C25.917 29.7744 21.8745 33.8169 21.8745 38.8044V53.6444C21.8745 58.6294 25.917 62.6744 30.907 62.6744H59.0945C64.082 62.6744 68.1245 58.6294 68.1245 53.6444V38.8044C68.1245 33.8169 64.082 29.7744 59.0945 29.7744Z" stroke="white" stroke-width="3" stroke-linecap="round" stroke-linejoin="round"/>
<path fill-rule="evenodd" clip-rule="evenodd" d="M37.0535 45.3359C37.051 49.7184 40.6285 53.3034 45.0035 53.3009C49.371 53.2959 52.9385 49.7259 52.946 45.3534C52.9535 40.9634 49.3885 37.3859 45.0085 37.3809C40.6035 37.3759 37.0185 41.0134 37.0535 45.3359Z" stroke="white" stroke-width="3" stroke-linecap="round" stroke-linejoin="round"/>
<path d="M57.2563 39.4877C57.0147 39.4629 56.7762 39.3999 56.509 39.2924C56.2118 39.1603 55.9545 38.9924 55.7057 38.7396C55.2588 38.2643 55 37.6426 55 37.0012C55 36.6605 55.0697 36.3229 55.2057 36.017C55.342 35.7071 55.5035 35.4457 55.7954 35.1614C56.0175 34.968 56.245 34.8123 56.556 34.6753C57.4783 34.3099 58.5753 34.5282 59.2608 35.2135C59.4663 35.416 59.6393 35.6603 59.7354 35.8663L59.7923 36.0124C59.9303 36.3229 60 36.6605 60 37.0012C60 37.6555 59.7445 38.2607 59.2704 38.7644C58.8605 39.177 58.3222 39.4307 57.748 39.4877L57.5 39.5L57.2563 39.4877Z" fill="#200E32" stroke="white" stroke-width="3"/>
</svg>
