<svg width="35" height="35" viewBox="0 0 35 35" fill="none" xmlns="http://www.w3.org/2000/svg">
<path fill-rule="evenodd" clip-rule="evenodd" d="M25.5207 29.167C27.5342 29.167 29.1665 27.5347 29.1665 25.5212C29.1665 23.5076 27.5342 21.8753 25.5207 21.8753C23.5071 21.8753 21.8748 23.5076 21.8748 25.5212C21.8748 27.5347 23.5071 29.167 25.5207 29.167ZM25.5207 30.6253C28.3396 30.6253 30.6248 28.3401 30.6248 25.5212C30.6248 22.7022 28.3396 20.417 25.5207 20.417C22.7017 20.417 20.4165 22.7022 20.4165 25.5212C20.4165 28.3401 22.7017 30.6253 25.5207 30.6253Z" fill="#0D3064"/>
<path fill-rule="evenodd" clip-rule="evenodd" d="M25.5207 22.9688C25.9234 22.9688 26.2498 23.2952 26.2498 23.6979V25.2188L26.7654 25.7344C27.0502 26.0191 27.0502 26.4809 26.7654 26.7656C26.4807 27.0503 26.019 27.0503 25.7342 26.7656L24.7915 25.8229V23.6979C24.7915 23.2952 25.118 22.9688 25.5207 22.9688Z" fill="#0D3064"/>
<path fill-rule="evenodd" clip-rule="evenodd" d="M10.2082 16.7708H8.74984V18.2292H10.2082V16.7708ZM8.74984 15.3125C7.9444 15.3125 7.2915 15.9654 7.2915 16.7708V18.2292C7.2915 19.0346 7.9444 19.6875 8.74984 19.6875H10.2082C11.0136 19.6875 11.6665 19.0346 11.6665 18.2292V16.7708C11.6665 15.9654 11.0136 15.3125 10.2082 15.3125H8.74984Z" fill="#0D3064"/>
<path fill-rule="evenodd" clip-rule="evenodd" d="M16.0417 16.7708H14.5833V18.2292H16.0417V16.7708ZM14.5833 15.3125C13.7779 15.3125 13.125 15.9654 13.125 16.7708V18.2292C13.125 19.0346 13.7779 19.6875 14.5833 19.6875H16.0417C16.8471 19.6875 17.5 19.0346 17.5 18.2292V16.7708C17.5 15.9654 16.8471 15.3125 16.0417 15.3125H14.5833Z" fill="#0D3064"/>
<path fill-rule="evenodd" clip-rule="evenodd" d="M21.8752 16.7708H20.4168V18.2292H21.8752V16.7708ZM20.4168 15.3125C19.6114 15.3125 18.9585 15.9654 18.9585 16.7708V18.2292C18.9585 19.0346 19.6114 19.6875 20.4168 19.6875H21.8752C22.6806 19.6875 23.3335 19.0346 23.3335 18.2292V16.7708C23.3335 15.9654 22.6806 15.3125 21.8752 15.3125H20.4168Z" fill="#0D3064"/>
<path fill-rule="evenodd" clip-rule="evenodd" d="M10.2082 22.6038H8.74984V24.0622H10.2082V22.6038ZM8.74984 21.1455C7.9444 21.1455 7.2915 21.7984 7.2915 22.6038V24.0622C7.2915 24.8676 7.9444 25.5205 8.74984 25.5205H10.2082C11.0136 25.5205 11.6665 24.8676 11.6665 24.0622V22.6038C11.6665 21.7984 11.0136 21.1455 10.2082 21.1455H8.74984Z" fill="#0D3064"/>
<path fill-rule="evenodd" clip-rule="evenodd" d="M16.0417 22.6038H14.5833V24.0622H16.0417V22.6038ZM14.5833 21.1455C13.7779 21.1455 13.125 21.7984 13.125 22.6038V24.0622C13.125 24.8676 13.7779 25.5205 14.5833 25.5205H16.0417C16.8471 25.5205 17.5 24.8676 17.5 24.0622V22.6038C17.5 21.7984 16.8471 21.1455 16.0417 21.1455H14.5833Z" fill="#0D3064"/>
<path fill-rule="evenodd" clip-rule="evenodd" d="M5.83333 8.75C5.83333 8.34728 6.1598 8.02083 6.5625 8.02083H10.2083V6.5625H6.5625C5.35438 6.5625 4.375 7.54184 4.375 8.75V26.25C4.375 27.4582 5.35438 28.4375 6.5625 28.4375H21.3316C21.0244 27.9971 20.7848 27.5059 20.6281 26.9792H6.5625C6.1598 26.9792 5.83333 26.6527 5.83333 26.25V8.75ZM24.7917 20.4684C25.0298 20.4343 25.2733 20.4167 25.5208 20.4167C25.7684 20.4167 26.0119 20.4343 26.25 20.4684V8.75C26.25 7.54192 25.2707 6.5625 24.0625 6.5625H21.875V8.02083H24.0625C24.4652 8.02083 24.7917 8.34728 24.7917 8.75V20.4684ZM11.6667 8.02083H19.3685V6.5625H11.6667V8.02083Z" fill="#0D3064"/>
<path fill-rule="evenodd" clip-rule="evenodd" d="M20.4165 6.5625H11.6665V8.75C11.6665 9.15272 11.3401 9.47917 10.9373 9.47917C10.5346 9.47917 10.2082 9.15272 10.2082 8.75V6.5625H6.56234C5.75692 6.5625 5.104 7.21542 5.104 8.02083V11.6667C5.104 12.4721 5.75692 13.125 6.56234 13.125H24.0623C24.8678 13.125 25.5207 12.4716 25.5207 11.6662V8.02127C25.5207 7.21589 24.8678 6.5625 24.0623 6.5625H21.8748V8.75C21.8748 9.15272 21.5484 9.47917 21.1457 9.47917C20.743 9.47917 20.4165 9.15272 20.4165 8.75V6.5625Z" fill="#0D3064"/>
<path fill-rule="evenodd" clip-rule="evenodd" d="M26.2502 13.1253H5.8335V11.667H26.2502V13.1253Z" fill="#0D3064"/>
<path d="M8.75 5.10417C8.75 4.70146 9.07645 4.375 9.47917 4.375C9.88189 4.375 10.2083 4.70146 10.2083 5.10417V8.02083C10.2083 8.42355 9.88189 8.75 9.47917 8.75C9.07645 8.75 8.75 8.42355 8.75 8.02083V5.10417Z" fill="#0D3064"/>
<path d="M18.9585 5.10417C18.9585 4.70146 19.2849 4.375 19.6877 4.375C20.0904 4.375 20.4168 4.70146 20.4168 5.10417V8.02083C20.4168 8.42355 20.0904 8.75 19.6877 8.75C19.2849 8.75 18.9585 8.42355 18.9585 8.02083V5.10417Z" fill="#0D3064"/>
</svg>
