<svg width="35" height="35" viewBox="0 0 35 35" fill="none" xmlns="http://www.w3.org/2000/svg">
<path fill-rule="evenodd" clip-rule="evenodd" d="M30.4123 17.3498L17.5422 4.4375L4.58941 17.3481C4.30419 17.6324 4.30343 18.0941 4.58773 18.3793C4.87202 18.6645 5.3337 18.6653 5.61892 18.381L7.29167 16.7137V29.8957C7.29167 30.2984 7.61811 30.6249 8.02083 30.6249H14.5833C14.9861 30.6249 15.3125 30.2984 15.3125 29.8957V23.5222C15.3125 23.1196 15.6389 22.793 16.0417 22.793H18.9583C19.3611 22.793 19.6875 23.1196 19.6875 23.5222V29.8957C19.6875 30.2984 20.0139 30.6249 20.4167 30.6249H26.9792C27.3819 30.6249 27.7083 30.2984 27.7083 29.8957V16.7027L29.3794 18.3793C29.6637 18.6645 30.1254 18.6653 30.4105 18.381C30.6958 18.0967 30.6965 17.635 30.4123 17.3498ZM26.25 15.2396L17.5389 6.4999L8.75 15.2601V29.1665H13.8542V23.5222C13.8542 22.3141 14.8335 21.3347 16.0417 21.3347H18.9583C20.1665 21.3347 21.1458 22.3141 21.1458 23.5222V29.1665H26.25V15.2396Z" fill="#0D3064"/>
</svg>
