<svg width="35" height="35" viewBox="0 0 35 35" fill="none" xmlns="http://www.w3.org/2000/svg">
<path d="M30.4123 17.3498L17.5422 4.4375L4.58941 17.3481C4.30419 17.6324 4.30343 18.0941 4.58773 18.3793C4.87202 18.6645 5.3337 18.6653 5.61892 18.381L8.02083 15.9869V29.8957C8.02083 30.2984 8.34728 30.6249 8.75 30.6249H13.8542C14.2569 30.6249 14.5833 30.2984 14.5833 29.8957V24.0625C14.5833 23.2571 15.2362 22.6042 16.0417 22.6042H18.9583C19.7638 22.6042 20.4167 23.2571 20.4167 24.0625V29.8957C20.4167 30.2984 20.7431 30.6249 21.1458 30.6249H26.25C26.6527 30.6249 26.9792 30.2984 26.9792 29.8957V15.9712L29.3794 18.3793C29.6637 18.6645 30.1254 18.6653 30.4105 18.381C30.6958 18.0967 30.6965 17.635 30.4123 17.3498Z" fill="#0D3064"/>
</svg>
