<svg width="35" height="35" viewBox="0 0 35 35" fill="none" xmlns="http://www.w3.org/2000/svg">
<path fill-rule="evenodd" clip-rule="evenodd" d="M32.0832 17.5003C32.0832 25.5545 25.554 32.0837 17.4998 32.0837C9.44568 32.0837 2.9165 25.5545 2.9165 17.5003C2.9165 9.44617 9.44568 2.91699 17.4998 2.91699C25.554 2.91699 32.0832 9.44617 32.0832 17.5003ZM9.479 17.5003C9.479 17.0976 9.80545 16.7712 10.2082 16.7712H16.7707V10.2087C16.7707 9.80594 17.0971 9.47949 17.4998 9.47949C17.9026 9.47949 18.229 9.80594 18.229 10.2087V16.7712H24.7915C25.1942 16.7712 25.5207 17.0976 25.5207 17.5003C25.5207 17.903 25.1942 18.2295 24.7915 18.2295H18.229V24.792C18.229 25.1947 17.9026 25.5212 17.4998 25.5212C17.0971 25.5212 16.7707 25.1947 16.7707 24.792V18.2295H10.2082C9.80545 18.2295 9.479 17.903 9.479 17.5003Z" fill="#0D3064"/>
<path fill-rule="evenodd" clip-rule="evenodd" d="M17.4998 30.6253C24.7486 30.6253 30.6248 24.749 30.6248 17.5003C30.6248 10.2516 24.7486 4.37533 17.4998 4.37533C10.2511 4.37533 4.37484 10.2516 4.37484 17.5003C4.37484 24.749 10.2511 30.6253 17.4998 30.6253ZM8.02067 17.5003C8.02067 16.2922 9.00001 15.3128 10.2082 15.3128H15.3123V10.2087C15.3123 9.0005 16.2917 8.02116 17.4998 8.02116C18.708 8.02116 19.6873 9.0005 19.6873 10.2087V15.3128H24.7915C25.9997 15.3128 26.979 16.2922 26.979 17.5003C26.979 18.7085 25.9997 19.6878 24.7915 19.6878H19.6873V24.792C19.6873 26.0001 18.708 26.9795 17.4998 26.9795C16.2917 26.9795 15.3123 26.0001 15.3123 24.792V19.6878H10.2082C9.00001 19.6878 8.02067 18.7085 8.02067 17.5003ZM10.2082 16.7712C9.80545 16.7712 9.479 17.0976 9.479 17.5003C9.479 17.903 9.80545 18.2295 10.2082 18.2295H16.7707V24.792C16.7707 25.1947 17.0971 25.5212 17.4998 25.5212C17.9026 25.5212 18.229 25.1947 18.229 24.792V18.2295H24.7915C25.1942 18.2295 25.5207 17.903 25.5207 17.5003C25.5207 17.0976 25.1942 16.7712 24.7915 16.7712H18.229V10.2087C18.229 9.80594 17.9026 9.47949 17.4998 9.47949C17.0971 9.47949 16.7707 9.80594 16.7707 10.2087V16.7712H10.2082ZM17.4998 32.0837C25.554 32.0837 32.0832 25.5545 32.0832 17.5003C32.0832 9.44617 25.554 2.91699 17.4998 2.91699C9.44568 2.91699 2.9165 9.44617 2.9165 17.5003C2.9165 25.5545 9.44568 32.0837 17.4998 32.0837Z" fill="#0D3064"/>
</svg>
