<svg width="35" height="35" viewBox="0 0 35 35" fill="none" xmlns="http://www.w3.org/2000/svg">
<path fill-rule="evenodd" clip-rule="evenodd" d="M10.7982 25.3117C15.7894 24.5828 19.2261 24.6457 24.2238 25.3375C24.9651 25.4401 25.521 26.0819 25.521 26.8459C25.521 27.1958 25.4006 27.536 25.1834 27.8008C24.7836 28.2883 24.396 28.7433 24.0196 29.1663H25.9456C26.0666 29.022 26.1884 28.8751 26.311 28.7255C26.7467 28.1943 26.9793 27.5256 26.9793 26.8459C26.9793 25.3694 25.9017 24.0974 24.4237 23.8929C19.3078 23.1848 15.7317 23.1174 10.5875 23.8687C9.09433 24.0867 8.021 25.3792 8.021 26.8657C8.021 27.526 8.23595 28.1776 8.6437 28.7072C8.76373 28.863 8.88294 29.016 9.00158 29.1663H10.88C10.5295 28.7478 10.1696 28.2984 9.79914 27.8174C9.59264 27.5492 9.47933 27.2121 9.47933 26.8657C9.47933 26.0806 10.0436 25.4219 10.7982 25.3117Z" fill="#0D3064"/>
<path fill-rule="evenodd" clip-rule="evenodd" d="M17.4998 18.2288C19.9161 18.2288 21.8748 16.2701 21.8748 13.8538C21.8748 11.4376 19.9161 9.47884 17.4998 9.47884C15.0836 9.47884 13.1248 11.4376 13.1248 13.8538C13.1248 16.2701 15.0836 18.2288 17.4998 18.2288ZM17.4998 19.6872C20.7215 19.6872 23.3332 17.0755 23.3332 13.8538C23.3332 10.6322 20.7215 8.02051 17.4998 8.02051C14.2782 8.02051 11.6665 10.6322 11.6665 13.8538C11.6665 17.0755 14.2782 19.6872 17.4998 19.6872Z" fill="#0D3064"/>
<path fill-rule="evenodd" clip-rule="evenodd" d="M17.4998 30.6253C24.7486 30.6253 30.6248 24.749 30.6248 17.5003C30.6248 10.2516 24.7486 4.37533 17.4998 4.37533C10.2511 4.37533 4.37484 10.2516 4.37484 17.5003C4.37484 24.749 10.2511 30.6253 17.4998 30.6253ZM17.4998 32.0837C25.554 32.0837 32.0832 25.5545 32.0832 17.5003C32.0832 9.44617 25.554 2.91699 17.4998 2.91699C9.44568 2.91699 2.9165 9.44617 2.9165 17.5003C2.9165 25.5545 9.44568 32.0837 17.4998 32.0837Z" fill="#0D3064"/>
</svg>
