<svg width="35" height="35" viewBox="0 0 35 35" fill="none" xmlns="http://www.w3.org/2000/svg">
<path fill-rule="evenodd" clip-rule="evenodd" d="M12.3957 5.83301H9.479C8.27085 5.83301 7.2915 6.81239 7.2915 8.02051V25.5205C7.2915 26.7287 8.27085 27.708 9.479 27.708H21.8748C23.083 27.708 24.0623 26.7287 24.0623 25.5205V8.02051C24.0623 6.81239 23.083 5.83301 21.8748 5.83301H21.1457V7.29134H21.8748C22.2776 7.29134 22.604 7.61779 22.604 8.02051V25.5205C22.604 25.9232 22.2776 26.2497 21.8748 26.2497H9.479C9.07629 26.2497 8.74984 25.9232 8.74984 25.5205V8.02051C8.74984 7.61779 9.07629 7.29134 9.479 7.29134H12.3957V5.83301ZM13.8541 7.29134H19.6874V5.83301H13.8541V7.29134Z" fill="#0D3064"/>
<path fill-rule="evenodd" clip-rule="evenodd" d="M10.2085 13.8542C10.2085 13.4514 10.5349 13.125 10.9377 13.125H20.4168C20.8195 13.125 21.146 13.4514 21.146 13.8542C21.146 14.2569 20.8195 14.5833 20.4168 14.5833H10.9377C10.5349 14.5833 10.2085 14.2569 10.2085 13.8542Z" fill="#0D3064"/>
<path fill-rule="evenodd" clip-rule="evenodd" d="M10.2085 17.4997C10.2085 17.097 10.5349 16.7705 10.9377 16.7705H16.0418C16.4445 16.7705 16.771 17.097 16.771 17.4997C16.771 17.9024 16.4445 18.2288 16.0418 18.2288H10.9377C10.5349 18.2288 10.2085 17.9024 10.2085 17.4997Z" fill="#0D3064"/>
<path fill-rule="evenodd" clip-rule="evenodd" d="M10.2085 21.1462C10.2085 20.7434 10.5349 20.417 10.9377 20.417H18.9585C19.3612 20.417 19.6877 20.7434 19.6877 21.1462C19.6877 21.5489 19.3612 21.8753 18.9585 21.8753H10.9377C10.5349 21.8753 10.2085 21.5489 10.2085 21.1462Z" fill="#0D3064"/>
<path fill-rule="evenodd" clip-rule="evenodd" d="M5.83333 7.29199V25.5212C5.83333 27.5347 7.46565 29.167 9.47917 29.167H21.875V30.6253H9.47917C6.66022 30.6253 4.375 28.3401 4.375 25.5212V7.29199H5.83333Z" fill="#0D3064"/>
<path fill-rule="evenodd" clip-rule="evenodd" d="M26.25 9.47949C26.25 8.27134 27.2293 7.29199 28.4375 7.29199C29.6457 7.29199 30.625 8.27134 30.625 9.47949V24.2836L28.4375 27.5649L26.25 24.2836V9.47949ZM28.4375 8.75033C28.0348 8.75033 27.7083 9.07677 27.7083 9.47949V23.842L28.4375 24.9358L29.1667 23.842V9.47949C29.1667 9.07677 28.8402 8.75033 28.4375 8.75033Z" fill="#0D3064"/>
<path fill-rule="evenodd" clip-rule="evenodd" d="M29.8957 12.3958H26.979V10.9375H29.8957V12.3958Z" fill="#0D3064"/>
<path fill-rule="evenodd" clip-rule="evenodd" d="M18.9582 4.375C19.3609 4.375 19.6873 4.70146 19.6873 5.10417V8.02083C19.6873 8.42355 19.3609 8.75 18.9582 8.75C18.5555 8.75 18.229 8.42355 18.229 8.02083V5.10417C18.229 4.70146 18.5555 4.375 18.9582 4.375Z" fill="#0D3064"/>
<path fill-rule="evenodd" clip-rule="evenodd" d="M11.6667 4.375C12.0694 4.375 12.3958 4.70146 12.3958 5.10417V8.02083C12.3958 8.42355 12.0694 8.75 11.6667 8.75C11.2639 8.75 10.9375 8.42355 10.9375 8.02083V5.10417C10.9375 4.70146 11.2639 4.375 11.6667 4.375Z" fill="#0D3064"/>
</svg>
