<svg width="35" height="35" viewBox="0 0 35 35" fill="none" xmlns="http://www.w3.org/2000/svg">
<path fill-rule="evenodd" clip-rule="evenodd" d="M9.47925 5.83301H12.3959V7.29192C12.3959 7.69464 12.7224 8.02109 13.1251 8.02109C13.5278 8.02109 13.8542 7.69464 13.8542 7.29192V5.83301H19.6876V7.29192C19.6876 7.69464 20.014 8.02109 20.4167 8.02109C20.8195 8.02109 21.1459 7.69464 21.1459 7.29192V5.83301H21.8751C23.0832 5.83301 24.0626 6.81239 24.0626 8.02051V25.5205C24.0626 26.7287 23.0832 27.708 21.8751 27.708H9.47925C8.27109 27.708 7.29175 26.7287 7.29175 25.5205V8.02051C7.29175 6.81239 8.27109 5.83301 9.47925 5.83301ZM10.9376 13.1247C10.5349 13.1247 10.2084 13.4511 10.2084 13.8538C10.2084 14.2566 10.5349 14.583 10.9376 14.583H20.4167C20.8195 14.583 21.1459 14.2566 21.1459 13.8538C21.1459 13.4511 20.8195 13.1247 20.4167 13.1247H10.9376ZM10.2084 17.4997C10.2084 17.097 10.5349 16.7705 10.9376 16.7705H16.0417C16.4445 16.7705 16.7709 17.097 16.7709 17.4997C16.7709 17.9024 16.4445 18.2288 16.0417 18.2288H10.9376C10.5349 18.2288 10.2084 17.9024 10.2084 17.4997ZM10.9376 20.4163C10.5349 20.4163 10.2084 20.7428 10.2084 21.1455C10.2084 21.5482 10.5349 21.8747 10.9376 21.8747H18.9584C19.3611 21.8747 19.6876 21.5482 19.6876 21.1455C19.6876 20.7428 19.3611 20.4163 18.9584 20.4163H10.9376Z" fill="#0D3064"/>
<path fill-rule="evenodd" clip-rule="evenodd" d="M5.83333 7.29199V25.5212C5.83333 27.5347 7.46565 29.167 9.47917 29.167H21.875V30.6253H9.47917C6.66022 30.6253 4.375 28.3401 4.375 25.5212V7.29199H5.83333Z" fill="#0D3064"/>
<path fill-rule="evenodd" clip-rule="evenodd" d="M28.4375 7.29199C27.2293 7.29199 26.25 8.27134 26.25 9.47949V11.667H30.625V9.47949C30.625 8.27134 29.6457 7.29199 28.4375 7.29199ZM30.625 13.1253H26.25V24.0628L28.4375 26.9795L30.625 24.0628V13.1253Z" fill="#0D3064"/>
<path fill-rule="evenodd" clip-rule="evenodd" d="M18.9584 4.375C19.3611 4.375 19.6876 4.70146 19.6876 5.10417V8.02083C19.6876 8.42355 19.3611 8.75 18.9584 8.75C18.5557 8.75 18.2292 8.42355 18.2292 8.02083V5.10417C18.2292 4.70146 18.5557 4.375 18.9584 4.375Z" fill="#0D3064"/>
<path fill-rule="evenodd" clip-rule="evenodd" d="M11.6667 4.375C12.0694 4.375 12.3958 4.70146 12.3958 5.10417V8.02083C12.3958 8.42355 12.0694 8.75 11.6667 8.75C11.2639 8.75 10.9375 8.42355 10.9375 8.02083V5.10417C10.9375 4.70146 11.2639 4.375 11.6667 4.375Z" fill="#0D3064"/>
</svg>
